<svg width="400" height="309" viewBox="0 0 400 309" fill="none" xmlns="http://www.w3.org/2000/svg">
<g filter="url(#filter0_d_2527_3239)">
<rect x="281.5" y="36.4395" width="66.8508" height="51.4101" rx="18.5" stroke="white" stroke-width="3" shape-rendering="crispEdges"/>
</g>
<path d="M99.093 266.554C99.093 268.869 85.8803 270.746 69.5812 270.746C53.2821 270.746 40.0693 268.869 40.0693 266.554C40.0693 264.238 53.2821 262.361 69.5812 262.361C85.8791 262.36 99.093 264.238 99.093 266.554Z" fill="#EDE4DD"/>
<g filter="url(#filter1_d_2527_3239)">
<path d="M302.327 100.669C304.084 101.111 305.848 101.543 307.616 101.973C307.639 101.979 307.662 101.982 307.685 101.984C307.902 102.003 308.112 101.864 308.173 101.649C308.241 101.412 308.099 101.173 307.859 101.115C306.095 100.684 304.333 100.253 302.577 99.8125C302.341 99.754 302.086 99.8951 302.017 100.132C301.948 100.369 302.087 100.609 302.327 100.669Z" fill="white"/>
<path d="M281.51 94.2783C283.134 94.9144 284.853 95.5412 286.622 96.1436C286.657 96.1552 286.693 96.1629 286.728 96.166C286.93 96.1835 287.13 96.0657 287.205 95.8698C287.294 95.6384 287.176 95.3871 286.943 95.3073C285.187 94.7099 283.479 94.0867 281.869 93.4557C281.638 93.3644 281.373 93.4779 281.274 93.7044C281.175 93.9316 281.28 94.1884 281.51 94.2783Z" fill="white"/>
<path d="M291.812 97.8037C293.476 98.3034 295.19 98.7919 297.052 99.296C297.078 99.3029 297.106 99.3079 297.132 99.3101C297.345 99.3287 297.552 99.1965 297.618 98.9867C297.691 98.7513 297.557 98.5077 297.318 98.4431C295.464 97.9411 293.758 97.4546 292.101 96.9574C291.868 96.8854 291.608 97.0176 291.528 97.2517C291.449 97.4858 291.576 97.7321 291.812 97.8037Z" fill="white"/>
<path d="M323.419 106.004C325.274 106.527 326.973 107.034 328.611 107.553C328.644 107.564 328.677 107.57 328.709 107.573C328.914 107.591 329.116 107.468 329.189 107.267C329.272 107.035 329.149 106.786 328.914 106.711C327.266 106.189 325.559 105.68 323.693 105.153C323.461 105.089 323.202 105.222 323.126 105.457C323.05 105.692 323.181 105.936 323.419 106.004Z" fill="white"/>
<path d="M333.734 109.284C335.475 109.915 337.165 110.577 338.756 111.25C338.8 111.269 338.846 111.28 338.892 111.284C339.082 111.301 339.271 111.198 339.356 111.017C339.461 110.792 339.363 110.532 339.137 110.437C337.531 109.758 335.827 109.09 334.072 108.453C333.838 108.369 333.576 108.488 333.483 108.716C333.39 108.945 333.503 109.199 333.734 109.284Z" fill="white"/>
<path d="M312.905 103.263C314.665 103.696 316.424 104.136 318.177 104.591C318.203 104.597 318.227 104.601 318.253 104.603C318.468 104.622 318.676 104.486 318.74 104.275C318.81 104.039 318.674 103.797 318.434 103.735C316.677 103.28 314.914 102.839 313.151 102.405C312.913 102.344 312.66 102.489 312.593 102.726C312.525 102.963 312.664 103.203 312.905 103.263Z" fill="white"/>
<path d="M271.648 89.747C273.188 90.5796 274.823 91.3931 276.508 92.1639C276.556 92.1857 276.606 92.1986 276.656 92.2029C276.84 92.219 277.027 92.1216 277.115 91.947C277.226 91.7254 277.135 91.4627 276.912 91.3603C275.244 90.5969 273.627 89.7928 272.105 88.9695C271.889 88.8547 271.612 88.9311 271.486 89.1469C271.36 89.3619 271.433 89.6302 271.648 89.747Z" fill="white"/>
<path d="M258.481 80.3362C258.556 80.4074 258.65 80.447 258.748 80.4555C258.88 80.467 259.019 80.421 259.121 80.3188C259.297 80.1415 259.298 79.8619 259.122 79.6938C257.887 78.5186 256.687 77.2655 255.453 75.8623C255.292 75.6811 255.006 75.6647 254.816 75.8271C254.624 75.99 254.599 76.2694 254.759 76.4519C256.01 77.8728 257.228 79.1438 258.481 80.3362Z" fill="white"/>
<path d="M231.911 46.9661C231.987 47.0478 232.09 47.0933 232.196 47.1026C232.32 47.1134 232.45 47.0738 232.55 46.9832C232.737 46.8153 232.753 46.5351 232.587 46.3579C231.368 45.0561 230.103 43.7667 228.83 42.5268C228.658 42.3576 228.369 42.3618 228.19 42.5376C228.011 42.7134 228.007 42.9933 228.182 43.1627C229.446 44.394 230.701 45.6734 231.911 46.9661Z" fill="white"/>
<path d="M220.189 36.103C221.561 37.2006 222.935 38.3565 224.273 39.5394C224.346 39.6039 224.435 39.6398 224.528 39.6478C224.666 39.6599 224.81 39.6097 224.913 39.4998C225.084 39.3161 225.074 39.0369 224.891 38.8753C223.543 37.6837 222.157 36.5183 220.773 35.4118C220.583 35.258 220.297 35.2912 220.136 35.4817C219.974 35.6727 219.998 35.9512 220.189 36.103Z" fill="white"/>
<path d="M238.824 55.0496C238.902 55.1485 239.015 55.2047 239.133 55.2151C239.245 55.2248 239.36 55.1943 239.458 55.1205C239.658 54.9688 239.699 54.6901 239.55 54.4994C238.459 53.1023 237.319 51.7068 236.162 50.3522C236.004 50.1679 235.719 50.147 235.526 50.3079C235.332 50.468 235.303 50.7471 235.46 50.9319C236.61 52.2774 237.742 53.6624 238.824 55.0496Z" fill="white"/>
<path d="M343.641 113.498C344.845 114.098 346.033 114.729 347.169 115.372C347.563 115.596 347.957 115.824 348.347 116.057C348.407 116.093 348.471 116.113 348.537 116.118C348.704 116.133 348.875 116.055 348.972 115.905C349.107 115.695 349.045 115.423 348.836 115.298C348.439 115.062 348.042 114.831 347.641 114.603C346.49 113.952 345.29 113.314 344.072 112.707C343.853 112.599 343.578 112.686 343.459 112.904C343.339 113.123 343.421 113.388 343.641 113.498Z" fill="white"/>
<path d="M245.086 63.6617C245.162 63.7702 245.28 63.8335 245.407 63.8445C245.51 63.8536 245.619 63.8277 245.713 63.7634C245.92 63.6215 245.976 63.3447 245.837 63.1464C244.816 61.6887 243.793 60.2315 242.752 58.7892C242.611 58.5926 242.33 58.5518 242.123 58.6951C241.918 58.8405 241.867 59.117 242.008 59.3136C243.045 60.7524 244.066 62.2067 245.086 63.6617Z" fill="white"/>
<path d="M262.572 83.8636C263.957 84.9441 265.441 85.9971 266.982 86.9925C267.043 87.0325 267.114 87.0557 267.185 87.0619C267.346 87.0759 267.512 87.0041 267.611 86.8619C267.752 86.6567 267.701 86.383 267.496 86.2501C265.977 85.2691 264.515 84.2315 263.15 83.166C262.957 83.0159 262.672 83.0505 262.513 83.2431C262.353 83.4355 262.38 83.7136 262.572 83.8636Z" fill="white"/>
<path d="M251.354 72.3119C251.431 72.4114 251.544 72.4683 251.663 72.4787C251.773 72.4883 251.889 72.4579 251.986 72.3853C252.187 72.2343 252.229 71.9564 252.08 71.7645C251.098 70.4977 250.091 69.1405 248.909 67.495C248.767 67.2984 248.486 67.2563 248.28 67.3997C248.075 67.5438 248.023 67.8208 248.164 68.018C249.351 69.6718 250.364 71.036 251.354 72.3119Z" fill="white"/>
<path d="M334.326 239.125C334.35 239.132 334.375 239.135 334.4 239.137C334.615 239.156 334.823 239.02 334.887 238.809C335.39 237.125 335.96 235.399 336.581 233.678C336.665 233.446 336.542 233.197 336.307 233.122C336.076 233.047 335.814 233.174 335.73 233.407C335.103 235.144 334.528 236.885 334.02 238.585C333.949 238.822 334.087 239.064 334.326 239.125Z" fill="white"/>
<path d="M368.282 170.796C368.481 170.813 368.678 170.699 368.756 170.506C369.489 168.685 370.101 167.004 370.629 165.369C370.704 165.134 370.573 164.89 370.335 164.823C370.095 164.758 369.842 164.893 369.766 165.127C369.246 166.742 368.64 168.402 367.917 170.205C367.824 170.434 367.937 170.688 368.17 170.771C368.206 170.784 368.245 170.792 368.282 170.796Z" fill="white"/>
<path d="M371.953 154.669C371.912 155.207 371.857 155.744 371.792 156.279C371.648 157.464 371.439 158.697 371.171 159.944C371.119 160.185 371.276 160.415 371.52 160.458C371.534 160.46 371.546 160.461 371.56 160.462C371.79 160.483 372.008 160.327 372.056 160.1C372.328 158.826 372.542 157.568 372.689 156.358C372.756 155.809 372.812 155.26 372.855 154.709C372.874 154.465 372.709 154.259 372.438 154.247C372.189 154.236 371.972 154.425 371.953 154.669Z" fill="white"/>
<path d="M353.255 199.893C353.429 199.909 353.608 199.822 353.701 199.661C354.614 198.081 355.526 196.5 356.429 194.916C356.553 194.699 356.477 194.433 356.259 194.318C356.045 194.206 355.766 194.286 355.643 194.503C354.74 196.085 353.829 197.665 352.917 199.244C352.792 199.46 352.867 199.728 353.084 199.843C353.138 199.872 353.197 199.888 353.255 199.893Z" fill="white"/>
<path d="M330.433 259.945C330.423 260.178 330.598 260.37 330.83 260.39C330.842 260.391 330.854 260.392 330.866 260.392C331.115 260.395 331.327 260.199 331.336 259.955C331.412 258.182 331.544 256.386 331.728 254.615C331.753 254.371 331.552 254.179 331.324 254.142C331.076 254.125 330.853 254.307 330.828 254.551C330.642 256.34 330.509 258.155 330.433 259.945Z" fill="white"/>
<path d="M371.939 149.375C371.957 149.587 372.127 149.747 372.335 149.765C372.365 149.768 372.395 149.768 372.426 149.764C372.675 149.737 372.86 149.518 372.84 149.275C372.691 147.499 372.393 145.704 371.954 143.94C371.896 143.704 371.653 143.564 371.408 143.63C371.166 143.695 371.016 143.938 371.075 144.173C371.503 145.894 371.793 147.644 371.939 149.375Z" fill="white"/>
<path d="M211.504 29.8653C212.987 30.8132 214.477 31.8237 215.933 32.8691C215.999 32.9168 216.076 32.9437 216.153 32.9504C216.307 32.9638 216.466 32.8993 216.566 32.7676C216.718 32.5691 216.68 32.2928 216.482 32.1507C215.013 31.0969 213.511 30.0775 212.014 29.1212C211.808 28.9889 211.526 29.0492 211.386 29.2552C211.246 29.4605 211.298 29.7336 211.504 29.8653Z" fill="white"/>
<path d="M331.932 249.673L331.952 249.675C332.191 249.696 332.413 249.529 332.452 249.293C332.747 247.534 333.102 245.759 333.505 244.02C333.561 243.781 333.409 243.548 333.165 243.501C332.926 243.457 332.679 243.61 332.623 243.849C332.215 245.606 331.858 247.398 331.559 249.176C331.519 249.418 331.685 249.641 331.932 249.673Z" fill="white"/>
<path d="M347.659 209.346C347.712 209.374 347.768 209.389 347.826 209.394C348.002 209.41 348.182 209.321 348.274 209.157C349.164 207.569 350.065 205.986 350.973 204.405C351.097 204.188 351.022 203.921 350.805 203.806C350.588 203.694 350.312 203.774 350.187 203.99C349.278 205.573 348.375 207.159 347.484 208.75C347.362 208.968 347.441 209.234 347.659 209.346Z" fill="white"/>
<path d="M352.8 118.992C354.241 120.039 355.64 121.156 356.958 122.313C357.03 122.377 357.12 122.412 357.212 122.42C357.35 122.433 357.495 122.382 357.597 122.271C357.768 122.087 357.757 121.808 357.574 121.647C356.236 120.472 354.816 119.338 353.354 118.276C353.155 118.133 352.871 118.176 352.72 118.374C352.566 118.573 352.602 118.849 352.8 118.992Z" fill="white"/>
<path d="M337.957 228.887C337.996 228.901 338.035 228.91 338.075 228.913C338.272 228.931 338.468 228.819 338.546 228.629C339.21 227.036 339.949 225.364 340.74 223.66C340.844 223.435 340.744 223.175 340.518 223.08C340.292 222.987 340.023 223.091 339.918 223.315C339.122 225.029 338.379 226.713 337.711 228.317C337.616 228.546 337.726 228.801 337.957 228.887Z" fill="white"/>
<path d="M364.176 130.056C364.253 130.158 364.368 130.217 364.489 130.228C364.598 130.237 364.711 130.208 364.807 130.138C365.01 129.99 365.056 129.713 364.911 129.518C363.854 128.111 362.69 126.725 361.449 125.398C361.284 125.221 360.998 125.214 360.811 125.381C360.624 125.549 360.607 125.828 360.773 126.006C361.993 127.311 363.138 128.673 364.176 130.056Z" fill="white"/>
<path d="M365.769 175.194C365.052 176.772 364.266 178.424 363.43 180.104C363.32 180.327 363.413 180.589 363.636 180.691C363.684 180.711 363.733 180.724 363.782 180.728C363.967 180.744 364.154 180.647 364.242 180.471C365.08 178.781 365.872 177.119 366.594 175.533C366.696 175.308 366.595 175.048 366.367 174.955C366.137 174.859 365.872 174.969 365.769 175.194Z" fill="white"/>
<path d="M369.427 139.175C369.49 139.329 369.634 139.425 369.794 139.439C369.866 139.445 369.942 139.434 370.015 139.404C370.247 139.307 370.36 139.046 370.267 138.822C369.597 137.199 368.794 135.577 367.881 134.001C367.759 133.79 367.483 133.724 367.266 133.848C367.048 133.973 366.969 134.245 367.091 134.454C367.985 135.998 368.771 137.586 369.427 139.175Z" fill="white"/>
<path d="M358.509 190.336C358.562 190.363 358.618 190.379 358.674 190.383C358.851 190.399 359.032 190.31 359.124 190.145C360.07 188.441 360.926 186.868 361.739 185.335C361.856 185.116 361.771 184.851 361.55 184.743C361.332 184.636 361.056 184.728 360.939 184.947C360.128 186.474 359.275 188.043 358.332 189.741C358.211 189.958 358.291 190.225 358.509 190.336Z" fill="white"/>
<path d="M342.661 219.025C342.844 219.041 343.03 218.945 343.118 218.771C343.9 217.225 344.727 215.645 345.642 213.94C345.76 213.721 345.677 213.456 345.457 213.347C345.237 213.241 344.963 213.329 344.845 213.548C343.925 215.259 343.096 216.846 342.31 218.399C342.198 218.621 342.288 218.884 342.511 218.986C342.56 219.009 342.61 219.021 342.661 219.025Z" fill="white"/>
<path d="M35.1461 138.187C34.9117 138.122 34.6545 138.259 34.5798 138.494C34.0346 140.223 33.5277 141.984 33.0735 143.726C33.011 143.964 33.1573 144.201 33.399 144.254C33.4185 144.259 33.4388 144.262 33.4579 144.263C33.6799 144.283 33.8921 144.138 33.9493 143.92C34.3998 142.192 34.9023 140.447 35.4437 138.731C35.5178 138.496 35.3845 138.252 35.1461 138.187Z" fill="white"/>
<path d="M30.1903 170.057C29.9408 170.066 29.7404 170.272 29.7426 170.516C29.7604 172.303 29.8258 174.115 29.9371 175.899C29.9507 176.115 30.1216 176.28 30.3344 176.299C30.3607 176.301 30.388 176.301 30.4162 176.299C30.6653 176.276 30.8555 176.061 30.8399 175.818C30.7294 174.049 30.6641 172.253 30.6465 170.481C30.6443 170.238 30.4493 170.041 30.1903 170.057Z" fill="white"/>
<path d="M31.3163 181.127C31.288 180.885 31.0658 180.714 30.8168 180.752C30.5683 180.786 30.3896 181.011 30.4173 181.252C30.6212 183.021 30.8744 184.81 31.1691 186.57C31.2022 186.768 31.3668 186.909 31.5611 186.926C31.6026 186.93 31.6448 186.928 31.6884 186.919C31.9352 186.872 32.1022 186.64 32.0615 186.401C31.7697 184.655 31.518 182.88 31.3163 181.127Z" fill="white"/>
<path d="M67.4455 89.154C67.568 89.1647 67.6959 89.1262 67.7967 89.0377C68.8276 88.1273 69.893 87.224 70.9634 86.3504C71.3117 86.0665 71.6611 85.7847 72.0131 85.5044C72.2093 85.3478 72.2442 85.0686 72.09 84.8814C71.9358 84.6935 71.6511 84.6693 71.4549 84.8253C71.1008 85.1074 70.7484 85.3916 70.3971 85.6778C69.3172 86.5583 68.2427 87.4707 67.2029 88.3881C67.0147 88.5546 66.9952 88.8339 67.159 89.0134C67.2346 89.0978 67.3381 89.1447 67.4455 89.154Z" fill="white"/>
<path d="M38.9701 128.011C38.7405 127.922 38.4743 128.036 38.3772 128.263C37.6599 129.936 36.977 131.643 36.3477 133.336C36.2614 133.568 36.3819 133.818 36.6162 133.895C36.6501 133.906 36.6846 133.913 36.7189 133.916C36.9225 133.934 37.123 133.813 37.1971 133.615C37.8208 131.935 38.498 130.242 39.2098 128.583C39.3068 128.356 39.1996 128.1 38.9701 128.011Z" fill="white"/>
<path d="M52.9503 234.842C53.0273 234.936 53.1373 234.99 53.2526 235C53.3672 235.01 53.4871 234.977 53.5844 234.9C53.7814 234.743 53.8168 234.464 53.6626 234.277C52.5452 232.911 51.4508 231.499 50.4094 230.078C50.2656 229.882 49.984 229.843 49.779 229.989C49.5747 230.135 49.5249 230.412 49.6687 230.608C50.72 232.04 51.8235 233.465 52.9503 234.842Z" fill="white"/>
<path d="M30.7382 165.131C30.805 163.593 30.9088 162.043 31.0455 160.523L31.1141 159.787C31.1379 159.544 30.972 159.354 30.7068 159.318C30.4584 159.302 30.2373 159.487 30.2135 159.73L30.144 160.473C30.0063 162.007 29.9015 163.571 29.8338 165.12C29.824 165.353 29.9989 165.546 30.2315 165.566C30.2427 165.567 30.2545 165.568 30.2665 165.568C30.5166 165.57 30.7276 165.375 30.7382 165.131Z" fill="white"/>
<path d="M31.266 154.848L31.2792 154.849C31.521 154.87 31.7437 154.699 31.7802 154.46C32.0473 152.701 32.3664 150.92 32.7273 149.167C32.7774 148.927 32.619 148.698 32.3743 148.657C32.1297 148.621 31.8907 148.778 31.8413 149.018C31.4765 150.786 31.1549 152.583 30.8852 154.357C30.8489 154.6 31.0191 154.82 31.266 154.848Z" fill="white"/>
<path d="M33.0765 191.626C33.0244 191.388 32.7843 191.244 32.5394 191.303C32.2952 191.361 32.14 191.601 32.1922 191.838C32.5762 193.571 33.0106 195.322 33.4844 197.039C33.5338 197.218 33.6897 197.337 33.8676 197.352C33.9229 197.357 33.9808 197.352 34.0381 197.336C34.2791 197.265 34.4231 197.019 34.3585 196.785C33.889 195.081 33.4575 193.345 33.0765 191.626Z" fill="white"/>
<path d="M43.8055 118.225C43.5864 118.116 43.3116 118.202 43.1918 118.419C42.3125 120.017 41.4628 121.655 40.6659 123.287C40.5573 123.511 40.6505 123.772 40.8761 123.872C40.9222 123.892 40.9706 123.905 41.0193 123.909C41.2058 123.925 41.3938 123.825 41.48 123.648C42.2707 122.029 43.114 120.405 43.9857 118.82C44.105 118.602 44.0243 118.336 43.8055 118.225Z" fill="white"/>
<path d="M63.1375 92.1549C61.8271 93.4342 60.5272 94.7685 59.2746 96.1194C59.1042 96.3032 59.114 96.5823 59.2968 96.7433C59.3695 96.8071 59.459 96.843 59.5506 96.851C59.689 96.8631 59.833 96.8129 59.9357 96.7023C61.1784 95.3623 62.4668 94.04 63.7666 92.7716C63.9458 92.5965 63.9508 92.3167 63.7772 92.146C63.6023 91.9753 63.3174 91.9805 63.1375 92.1549Z" fill="white"/>
<path d="M56.257 100.194C56.0646 100.042 55.7802 100.075 55.6195 100.267C54.4432 101.669 53.2848 103.12 52.1758 104.582C52.025 104.78 52.0638 105.056 52.2629 105.198C52.329 105.246 52.4044 105.272 52.4821 105.278C52.6363 105.292 52.7961 105.227 52.8962 105.094C53.9964 103.645 55.1453 102.206 56.3115 100.816C56.4722 100.623 56.4476 100.346 56.257 100.194Z" fill="white"/>
<path d="M35.905 201.867C35.828 201.637 35.5724 201.516 35.3359 201.599C35.0982 201.68 34.9673 201.933 35.0437 202.163C35.6035 203.853 36.214 205.546 36.8583 207.198C36.9196 207.356 37.0658 207.456 37.2279 207.47C37.2977 207.476 37.3707 207.467 37.4407 207.439C37.6746 207.346 37.7928 207.087 37.7045 206.862C37.0653 205.223 36.4598 203.542 35.905 201.867Z" fill="white"/>
<path d="M49.5755 108.92C49.3686 108.788 49.0876 108.848 48.9471 109.054C47.9165 110.561 46.9082 112.113 45.9501 113.669C45.8196 113.881 45.8864 114.152 46.0993 114.273C46.1566 114.305 46.219 114.324 46.2815 114.329C46.4515 114.344 46.6259 114.263 46.7214 114.108C47.6715 112.564 48.6723 111.024 49.6939 109.53C49.8342 109.325 49.7812 109.051 49.5755 108.92Z" fill="white"/>
<path d="M192.211 20.495C193.894 21.0697 195.59 21.7108 197.252 22.3999C197.296 22.4181 197.341 22.4292 197.385 22.4331C197.576 22.4497 197.767 22.3448 197.851 22.1627C197.955 21.9372 197.854 21.6782 197.627 21.584C195.948 20.8881 194.234 20.2402 192.533 19.6594C192.297 19.5794 192.038 19.7025 191.949 19.9333C191.86 20.1639 191.977 20.4158 192.211 20.495Z" fill="white"/>
<path d="M160.003 16.6793C160.031 16.6818 160.06 16.6817 160.089 16.6789C161.9 16.4991 163.736 16.3835 165.546 16.3335C165.795 16.3272 165.998 16.1234 165.999 15.8792C166.001 15.6356 165.798 15.4383 165.549 15.4498C163.717 15.4992 161.859 15.6168 160.026 15.7987C159.776 15.8233 159.589 16.0402 159.607 16.2835C159.622 16.4978 159.792 16.6609 160.003 16.6793Z" fill="white"/>
<path d="M149.14 18.5655C149.19 18.5699 149.241 18.5658 149.293 18.5527C151.053 18.113 152.859 17.7321 154.661 17.4195C154.908 17.3764 155.079 17.147 155.043 16.9066C155.006 16.6657 154.775 16.5063 154.53 16.549C152.705 16.8655 150.877 17.2516 149.095 17.6966C148.852 17.7571 148.699 17.9985 148.753 18.2352C148.796 18.4212 148.955 18.5494 149.14 18.5655Z" fill="white"/>
<path d="M138.649 22.0405C138.721 22.0468 138.797 22.0358 138.87 22.0055C140.541 21.304 142.273 20.656 144.017 20.0789C144.256 19.9998 144.389 19.7482 144.316 19.5177C144.242 19.2865 143.99 19.162 143.751 19.2424C141.985 19.8273 140.23 20.4837 138.535 21.1944C138.303 21.2917 138.19 21.5523 138.282 21.776C138.345 21.9298 138.49 22.0267 138.649 22.0405Z" fill="white"/>
<path d="M202.158 24.6143C203.747 25.3898 205.346 26.2295 206.91 27.1106C206.967 27.1431 207.028 27.1608 207.09 27.1662C207.261 27.1811 207.436 27.099 207.531 26.9433C207.66 26.7305 207.592 26.4613 207.379 26.3408C205.8 25.4518 204.185 24.6036 202.581 23.8208C202.359 23.7139 202.086 23.8032 201.969 24.0223C201.852 24.2421 201.937 24.5068 202.158 24.6143Z" fill="white"/>
<path d="M128.832 27.1276C128.93 27.1361 129.032 27.1137 129.122 27.0569C130.653 26.0929 132.258 25.1751 133.891 24.3303C134.114 24.2145 134.205 23.9468 134.094 23.7313C133.982 23.5171 133.711 23.4359 133.487 23.5517C131.831 24.4094 130.203 25.3402 128.649 26.3186C128.437 26.4523 128.37 26.7267 128.501 26.9308C128.576 27.0478 128.699 27.116 128.832 27.1276Z" fill="white"/>
<path d="M181.775 17.6849C183.529 18.0324 185.303 18.4471 187.047 18.918C187.073 18.9248 187.099 18.9291 187.126 18.9314C187.339 18.95 187.547 18.8172 187.612 18.6072C187.684 18.3719 187.55 18.1282 187.312 18.0637C185.548 17.5878 183.755 17.1689 181.981 16.8176C181.747 16.7704 181.496 16.9242 181.438 17.1635C181.381 17.4035 181.532 17.6369 181.775 17.6849Z" fill="white"/>
<path d="M56.5735 239.015C57.8478 240.404 59.0427 241.621 60.2244 242.734C60.2984 242.803 60.3922 242.842 60.489 242.851C60.6228 242.862 60.7623 242.816 60.8642 242.712C61.0399 242.534 61.0395 242.254 60.8621 242.088C59.696 240.989 58.5152 239.787 57.2197 238.375L57.1445 238.293C56.9806 238.114 56.6952 238.102 56.5064 238.268C56.3177 238.433 56.2968 238.712 56.4606 238.893L56.5735 239.015Z" fill="white"/>
<path d="M170.979 16.3827C170.986 16.3832 170.992 16.3838 170.998 16.3837C172.81 16.4658 174.628 16.6159 176.42 16.8335C176.671 16.8528 176.897 16.6909 176.935 16.4486C176.973 16.2056 176.804 15.9851 176.558 15.9557C174.743 15.7374 172.903 15.5848 171.068 15.5006C170.819 15.4893 170.601 15.6775 170.582 15.9221C170.564 16.159 170.74 16.3618 170.979 16.3827Z" fill="white"/>
<path d="M84.9357 75.6419C85.047 75.6517 85.1633 75.6213 85.2609 75.5475C86.8946 74.3036 88.318 73.1793 89.6119 72.1109C89.806 71.9508 89.8348 71.6718 89.677 71.4868C89.5191 71.3026 89.2345 71.2823 89.0405 71.4424C87.7561 72.5031 86.3423 73.6198 84.7188 74.8561C84.5184 75.0085 84.4777 75.2865 84.6275 75.4772C84.7047 75.5761 84.8177 75.6317 84.9357 75.6419Z" fill="white"/>
<path d="M93.422 68.5754C93.5498 68.5866 93.6828 68.5446 93.7843 68.4496C95.2078 67.1116 96.4768 65.8125 97.6641 64.4787C97.8307 64.292 97.8143 64.013 97.6284 63.8556C97.4425 63.699 97.1567 63.7217 96.9899 63.9097C95.8211 65.2229 94.5706 66.5021 93.168 67.821C92.9852 67.9932 92.9749 68.2732 93.1448 68.4461C93.2206 68.5233 93.3192 68.5665 93.422 68.5754Z" fill="white"/>
<path d="M76.0577 82.2341C76.1677 82.2437 76.2826 82.2138 76.3793 82.1419C77.5783 81.2456 78.7843 80.3577 79.9917 79.4693L80.8231 78.8565C81.0258 78.7076 81.071 78.43 80.9249 78.2363C80.7801 78.0433 80.4955 78.0068 80.2935 78.1558L79.4622 78.7679C78.254 79.6576 77.0452 80.5465 75.844 81.4446C75.6425 81.5949 75.5992 81.8727 75.7474 82.0653C75.8236 82.1666 75.9378 82.2236 76.0577 82.2341Z" fill="white"/>
<path d="M120.056 33.8229C120.181 33.8339 120.313 33.7931 120.414 33.7C121.744 32.4786 123.157 31.2966 124.616 30.187C124.816 30.0353 124.857 29.7566 124.707 29.5658C124.557 29.3731 124.273 29.3432 124.074 29.4957C122.593 30.6228 121.157 31.8231 119.806 33.0649C119.621 33.2343 119.608 33.5147 119.776 33.69C119.851 33.7698 119.952 33.8138 120.056 33.8229Z" fill="white"/>
<path d="M112.504 41.9308C112.569 41.9756 112.643 42.0004 112.718 42.0069C112.874 42.0205 113.036 41.9536 113.136 41.818C113.501 41.3226 113.873 40.8324 114.254 40.3475C114.99 39.4102 115.769 38.4812 116.573 37.5857C116.74 37.3991 116.725 37.1201 116.539 36.9621C116.353 36.8048 116.067 36.8276 115.9 37.0142C115.083 37.9249 114.29 38.8703 113.542 39.823C113.156 40.3152 112.778 40.8127 112.407 41.3154C112.26 41.5168 112.303 41.7924 112.504 41.9308Z" fill="white"/>
<path d="M106.524 51.1157C106.581 51.1488 106.644 51.1673 106.706 51.1728C106.876 51.1876 107.051 51.1068 107.146 50.9518C108.03 49.5184 109.032 47.8935 110.05 46.3183C110.186 46.1087 110.125 45.8375 109.915 45.7114C109.705 45.5846 109.425 45.653 109.29 45.8626C108.265 47.4464 107.261 49.0757 106.375 50.5135C106.244 50.7248 106.311 50.9946 106.524 51.1157Z" fill="white"/>
<path d="M100.503 60.2739C100.568 60.3187 100.641 60.3427 100.716 60.3493C100.873 60.3629 101.036 60.2955 101.136 60.1585C102.107 58.8288 103.121 57.3382 104.237 55.6017C104.371 55.392 104.311 55.1201 104.1 54.9947C103.89 54.8685 103.61 54.9382 103.475 55.1472C102.369 56.8683 101.365 58.3434 100.405 59.6591C100.257 59.8611 100.301 60.1361 100.503 60.2739Z" fill="white"/>
</g>
<g filter="url(#filter2_d_2527_3239)">
<path d="M81.458 267.147H57.9752C54.7819 267.147 51.951 265.09 50.9649 262.053L41.0061 231.399C40.5986 230.145 41.473 228.843 42.7881 228.74C60.9202 227.335 78.8742 227.334 96.65 228.737C97.9627 228.84 98.8358 230.143 98.4283 231.396L88.4683 262.053C87.4823 265.089 84.6513 267.147 81.458 267.147Z" fill="#F99900"/>
<path d="M96.3399 230.965C96.3399 231.78 84.4909 232.442 69.874 232.442C55.2571 232.442 43.4082 231.781 43.4082 230.965C43.4082 230.15 55.2571 229.488 69.874 229.488C84.4909 229.488 96.3399 230.15 96.3399 230.965Z" fill="#373543"/>
<path d="M72.7096 231.164L70.127 230.779C74.8622 198.993 76.9317 164.592 76.4554 125.608L79.0665 125.576C79.5453 164.701 77.4663 199.239 72.7096 231.164Z" fill="#3043BC"/>
<path d="M73.4582 203.637C73.2182 192.955 59.238 185.093 59.0967 185.014L60.3595 182.729C60.9903 183.077 75.795 191.389 76.0694 203.579L73.4582 203.637Z" fill="#3043BC"/>
<path d="M76.8593 194.75L74.2969 194.243C78.2208 174.442 92.0524 166.041 92.6393 165.693L93.9722 167.939C93.8379 168.018 80.5456 176.139 76.8593 194.75Z" fill="#3043BC"/>
<path d="M29.9456 183.461C26.8842 188.091 30.3246 198.099 30.3246 198.099L38.4742 214.678L53.223 206.943C53.223 206.943 51.3115 194.133 52.806 194.431C54.3004 194.729 56.5837 205.67 56.5837 205.67L63.7116 201.075C63.7116 201.075 58.2184 186.773 61.243 188.155C64.2676 189.535 67.5227 198.533 67.5227 198.533C67.5227 198.533 69.4995 198.348 72.0762 192.257C74.6482 186.168 73.0397 174.78 65.1942 173.215C57.3524 171.65 52.7572 176.364 52.7572 176.364C50.2874 165.386 41.4417 167.698 36.5865 168.67C31.7312 169.645 29.7164 177.786 29.7164 177.786C29.7164 177.786 42.3779 175.652 41.595 178.603C40.8121 181.552 29.9456 183.461 29.9456 183.461ZM60.8593 176.485C60.8593 176.485 65.0267 175.65 65.8405 178.257C66.6542 180.863 60.9615 181.841 58.9989 180.668C57.034 179.499 58.0378 177.255 60.8593 176.485ZM37.8718 187.98C40.1053 185.775 42.8554 186.581 42.8554 186.581C42.8554 186.581 43.3069 188.961 41.2232 191.353C39.1418 193.748 35.1906 193.703 35.1906 193.703C35.1906 193.703 35.6361 190.18 37.8718 187.98Z" fill="#375BC9"/>
<path d="M31.8483 122.021C27.4219 126.55 29.1231 138.506 29.1231 138.506L34.6888 158.839L52.8815 153.344C52.8815 153.344 53.4969 138.578 55.1066 139.233C56.7163 139.889 56.9219 152.641 56.9219 152.641L65.8982 149.026C65.8982 149.026 62.819 131.817 65.9113 134.015C69.0048 136.212 70.7167 146.996 70.7167 146.996C70.7167 146.996 72.9726 147.213 77.1698 140.943C81.3621 134.674 82.0108 121.564 73.5559 118.122C65.1046 114.68 58.9414 118.975 58.9414 118.975C58.5363 106.141 48.1248 106.829 42.476 106.873C36.8248 106.92 32.8153 115.612 32.8153 115.612C32.8153 115.612 47.4631 115.944 45.9508 119.083C44.4362 122.22 31.8483 122.021 31.8483 122.021ZM67.9926 120.855C67.9926 120.855 72.842 120.816 73.1936 123.912C73.5441 127.008 66.9543 126.878 65.0072 125.143C63.0578 123.409 64.6663 121.112 67.9926 120.855ZM39.7591 128.791C42.7361 126.801 45.6443 128.296 45.6443 128.296C45.6443 128.296 45.6384 131.06 42.7884 133.292C39.9408 135.528 35.5216 134.628 35.5216 134.628C35.5216 134.628 36.7796 130.776 39.7591 128.791Z" fill="#375BC9"/>
<path d="M107.767 160.146C107.176 157.079 120.296 160.122 120.296 160.122C120.296 160.122 118.813 151.668 113.794 150.341C108.776 149.017 99.6725 146.051 96.2286 157.095C96.2286 157.095 91.7737 151.967 83.4233 153.03C75.0694 154.093 72.4986 165.618 74.7249 172.012C76.9547 178.409 79.0159 178.733 79.0159 178.733C79.0159 178.733 83.1299 169.765 86.4111 168.562C89.6923 167.358 82.8174 181.592 82.8174 181.592L89.9406 186.772C89.9406 186.772 93.1861 175.753 94.7768 175.551C96.3675 175.348 93.3679 188.303 93.3679 188.303L108.244 197.21L118.083 180.832C118.083 180.832 122.47 170.845 119.616 165.907C119.616 165.907 108.363 163.214 107.767 160.146ZM89.349 161.068C87.1987 162.131 81.3004 160.744 82.3565 158.137C83.4126 155.531 87.7203 156.669 87.7203 156.669C90.6201 157.649 91.5004 160.008 89.349 161.068ZM113.319 176.008C113.319 176.008 109.169 175.785 107.171 173.196C105.169 170.611 105.829 168.21 105.829 168.21C105.829 168.21 108.776 167.575 110.949 169.979C113.124 172.381 113.319 176.008 113.319 176.008Z" fill="#375BC9"/>
</g>
<path d="M210.103 293.61C306.648 293.61 384.914 287.108 384.914 279.088C384.914 271.068 306.648 264.566 210.103 264.566C113.557 264.566 35.292 271.068 35.292 279.088C35.292 287.108 113.557 293.61 210.103 293.61Z" fill="#EDE4DD"/>
<path d="M114.497 257.293C100.386 256.282 89.542 247.156 90.2763 236.909C91.0107 226.662 103.045 219.175 117.156 220.187C131.267 221.198 148.416 231.938 150.83 241.249C147.328 250.695 128.608 258.305 114.497 257.293Z" fill="white"/>
<path d="M114.497 257.293C100.386 256.282 89.542 247.156 90.2763 236.909C91.0107 226.662 103.045 219.175 117.156 220.187C131.267 221.198 148.416 231.938 150.83 241.249C147.328 250.695 128.608 258.305 114.497 257.293Z" fill="url(#paint0_linear_2527_3239)"/>
<g filter="url(#filter3_d_2527_3239)">
<path d="M87.3797 241.421L109.653 194.641L131.539 205.061L109.265 251.843L87.3797 241.421Z" fill="#FFCE31"/>
<path d="M131.112 181.358L128.325 180.032C123.044 177.518 116.764 179.747 114.142 185.067L109.604 194.603L131.609 205.077L136.148 195.541C138.662 190.26 136.394 183.872 131.112 181.358Z" fill="#ED4C5C"/>
<path d="M106.832 200.599L109.694 194.582L131.582 205L128.719 211.016L106.832 200.599Z" fill="#93A2AA"/>
<path d="M109.12 201.686L111.983 195.67L129.204 203.866L126.339 209.881L109.12 201.686Z" fill="#C7D3D8"/>
<path d="M87.3262 241.402L86.8237 262.305L93.4253 265.447L109.332 251.876L87.3262 241.402Z" fill="#FED0AC"/>
<path d="M86.788 265.976C86.7362 268.92 88.4582 269.65 90.7105 267.753L98.3966 261.244L87.1005 255.868L86.788 265.976Z" fill="#333333"/>
<path d="M87.3478 241.483L106.801 200.611L114.063 204.068L94.6096 244.939L87.3478 241.483Z" fill="#FFDF85"/>
<path d="M102.016 248.428L121.469 207.557L128.731 211.013L109.278 251.884L102.016 248.428Z" fill="#FF8736"/>
</g>
<ellipse cx="233.449" cy="284.232" rx="85.6591" ry="6.43363" fill="black" fill-opacity="0.45"/>
<ellipse cx="138.416" cy="272.103" rx="30.6976" ry="4.59545" fill="black" fill-opacity="0.45"/>
<g filter="url(#filter4_d_2527_3239)">
<path d="M73.7949 275.387L142.741 273.757L180.982 282.782L109.112 284.481L73.7949 275.387Z" fill="white"/>
</g>
<g filter="url(#filter5_d_2527_3239)">
<ellipse cx="256.115" cy="118.125" rx="31.6467" ry="20.8202" transform="rotate(26.4912 256.115 118.125)" fill="url(#paint1_linear_2527_3239)"/>
<ellipse cx="238.288" cy="155.766" rx="79.1167" ry="44.1388" transform="rotate(26.4912 238.288 155.766)" fill="url(#paint2_linear_2527_3239)"/>
</g>
<g filter="url(#filter6_d_2527_3239)">
<path d="M307.977 203.51C294.175 191.345 268.194 198.266 249.946 218.969C231.699 239.672 228.095 266.317 241.897 278.482C255.699 290.647 289.985 286.897 309.174 271.172C323.606 249.257 321.779 215.675 307.977 203.51Z" fill="white"/>
<path d="M241.897 278.483C228.095 266.318 231.698 239.673 249.946 218.97C268.194 198.267 294.175 191.346 307.977 203.511C321.779 215.676 322.365 250.162 309.174 271.173C289.244 288.243 255.698 290.648 241.897 278.483Z" fill="url(#paint3_linear_2527_3239)"/>
</g>
<g filter="url(#filter7_d_2527_3239)">
<g filter="url(#filter8_d_2527_3239)">
<path d="M288.986 205.004C288.986 235.668 251.7 260.525 205.706 260.525C159.711 260.525 122.425 235.668 122.425 205.004C122.425 174.341 164.898 135.604 205.706 128.941C249.011 135.049 288.986 174.341 288.986 205.004Z" fill="white"/>
</g>
<path d="M288.986 205.004C288.986 235.668 251.7 260.525 205.706 260.525C159.711 260.525 122.425 235.668 122.425 205.004C122.425 174.341 164.898 135.604 205.706 128.941C249.011 135.049 288.986 174.341 288.986 205.004Z" fill="url(#paint4_linear_2527_3239)"/>
<path d="M254.006 242.959C254.006 252.663 232.38 260.529 205.703 260.529C179.026 260.529 157.4 252.663 157.4 242.959C157.4 233.256 182.035 220.997 205.703 218.889C230.821 220.821 254.006 233.256 254.006 242.959Z" fill="url(#paint5_linear_2527_3239)"/>
</g>
<ellipse cx="156.798" cy="176.412" rx="3.15457" ry="3.15457" fill="#E2E2E2"/>
<ellipse cx="160.455" cy="173.635" rx="2.52366" ry="2.14511" fill="#E2E2E2"/>
<ellipse cx="171.561" cy="173.887" rx="2.52366" ry="2.14511" fill="#E2E2E2"/>
<path d="M178.373 175.527C178.373 177.269 172.844 171.741 165.945 171.741C159.045 171.741 153.894 177.269 153.894 175.527C153.894 173.784 159.045 169.344 165.945 169.344C172.844 169.344 178.373 173.784 178.373 175.527Z" fill="#E2E2E2"/>
<path d="M174.083 178.807C174.083 180.087 170.769 175.273 166.003 175.273C161.238 175.273 158.562 179.835 158.562 178.554C158.562 177.273 161.238 170.479 166.003 170.479C170.769 170.479 174.083 177.526 174.083 178.807Z" fill="#E2E2E2"/>
<ellipse cx="175.473" cy="176.412" rx="3.15457" ry="3.15457" fill="#E2E2E2"/>
<ellipse cx="208.441" cy="176.412" rx="3.15457" ry="3.15457" fill="#E2E2E2"/>
<ellipse cx="212.098" cy="173.635" rx="2.52366" ry="2.14511" fill="#E2E2E2"/>
<ellipse cx="223.202" cy="173.887" rx="2.52366" ry="2.14511" fill="#E2E2E2"/>
<path d="M230.016 175.527C230.016 177.269 224.486 171.741 217.587 171.741C210.688 171.741 205.536 177.269 205.536 175.527C205.536 173.784 210.688 169.344 217.587 169.344C224.486 169.344 230.016 173.784 230.016 175.527Z" fill="#E2E2E2"/>
<path d="M225.729 178.807C225.729 180.087 222.414 175.273 217.649 175.273C212.883 175.273 210.208 179.835 210.208 178.554C210.208 177.273 212.883 170.479 217.649 170.479C222.414 170.479 225.729 177.526 225.729 178.807Z" fill="#E2E2E2"/>
<ellipse cx="227.115" cy="176.412" rx="3.15457" ry="3.15457" fill="#E2E2E2"/>
<g filter="url(#filter9_d_2527_3239)">
<ellipse cx="164.325" cy="209.282" rx="12.4921" ry="18.1136" fill="white"/>
</g>
<ellipse cx="165.991" cy="210.321" rx="10.8265" ry="17.4889" fill="black"/>
<ellipse cx="162.66" cy="201.995" rx="2.49842" ry="2.49842" fill="white"/>
<g filter="url(#filter10_d_2527_3239)">
<ellipse cx="221.101" cy="209.114" rx="12.4921" ry="18.1136" fill="white"/>
</g>
<ellipse cx="219.435" cy="210.153" rx="10.8265" ry="17.4889" fill="black"/>
<path d="M218.602 201.827C218.602 203.206 217.484 204.325 216.104 204.325C214.724 204.325 213.605 203.206 213.605 201.827C213.605 200.447 214.724 199.328 216.104 199.328C217.484 199.328 218.602 200.447 218.602 201.827Z" fill="white"/>
<path d="M208.387 250.912C194.812 254.897 186.154 266.118 189.048 275.975C191.942 285.832 205.292 290.592 218.867 286.607C232.441 282.621 246.917 268.484 247.299 258.873C241.871 250.386 221.961 246.926 208.387 250.912Z" fill="white"/>
<path d="M208.387 250.912C194.812 254.897 186.154 266.118 189.048 275.975C191.942 285.832 205.292 290.592 218.867 286.607C232.441 282.621 246.917 268.484 247.299 258.873C241.871 250.386 221.961 246.926 208.387 250.912Z" fill="url(#paint6_linear_2527_3239)"/>
<g filter="url(#filter11_d_2527_3239)">
<path d="M33.0561 89.3819C33.2669 89.5848 33.3884 89.8631 33.394 90.1555C33.3996 90.448 33.2888 90.7307 33.0859 90.9415C32.8831 91.1523 32.6048 91.2738 32.3123 91.2794C32.0198 91.285 31.7371 91.1741 31.5263 90.9713L29.0136 88.5526C28.9092 88.4522 28.8256 88.3321 28.7677 88.1994C28.7097 88.0667 28.6784 87.9238 28.6757 87.779C28.6729 87.6342 28.6987 87.4902 28.7516 87.3554C28.8044 87.2205 28.8833 87.0974 28.9838 86.993C29.0842 86.8887 29.2042 86.8051 29.337 86.7472C29.4697 86.6892 29.6126 86.6579 29.7574 86.6552C29.9022 86.6524 30.0462 86.6782 30.181 86.731C30.3159 86.7839 30.439 86.8628 30.5434 86.9633L33.0561 89.3819ZM24.3821 89.3409C24.123 89.4767 23.9285 89.7098 23.8413 89.9891C23.7541 90.2683 23.7814 90.5707 23.9172 90.8298L25.9651 94.7373C26.1009 94.9964 26.334 95.1909 26.6132 95.2781C26.8924 95.3653 27.1948 95.338 27.4539 95.2022C27.713 95.0664 27.9075 94.8333 27.9947 94.554C28.0819 94.2748 28.0546 93.9724 27.9188 93.7133L25.8709 89.8058C25.7352 89.5467 25.502 89.3522 25.2228 89.265C24.9436 89.1778 24.6412 89.2051 24.3821 89.3409ZM19.8329 91.7889C19.6899 91.8121 19.5529 91.8633 19.4297 91.9394C19.3065 92.0156 19.1995 92.1153 19.1148 92.2328C19.0301 92.3503 18.9694 92.4834 18.9362 92.6243C18.9029 92.7653 18.8977 92.9115 18.921 93.0545L19.48 96.4971C19.5269 96.7858 19.6866 97.0441 19.9239 97.2151C20.1612 97.3861 20.4568 97.4559 20.7455 97.409C21.0343 97.3621 21.2926 97.2024 21.4636 96.9651C21.6346 96.7278 21.7043 96.4322 21.6574 96.1435L21.0984 92.7009C21.0752 92.5579 21.0241 92.4209 20.9479 92.2977C20.8717 92.1745 20.772 92.0675 20.6545 91.9828C20.537 91.8981 20.404 91.8374 20.263 91.8041C20.122 91.7709 19.9759 91.7657 19.8329 91.7889ZM34.4275 72.8694C35.4655 74.8501 34.7718 77.497 32.4725 80.3208C30.3775 82.8959 27.1435 85.4033 23.3582 87.3872C19.5728 89.3711 15.6706 90.6036 12.361 90.861C8.73064 91.1449 6.15921 90.2092 5.12119 88.2286C4.58554 87.2065 4.23884 85.4551 5.62636 82.9052C6.52774 81.2483 8.0354 79.5009 10.0009 77.8342C10.1063 76.5246 10.5044 75.2554 11.1659 74.1203C11.8275 72.9851 12.7355 72.0131 13.8229 71.2758C14.9104 70.5385 16.1496 70.0549 17.4489 69.8606C18.7483 69.6664 20.0747 69.7664 21.3303 70.1533C21.9701 70.3494 22.5858 70.6166 23.1659 70.9502C28.8092 69.4463 33.0029 70.1513 34.4275 72.8694ZM24.6117 75.5234C24.0905 74.5243 23.3211 73.6759 22.3774 73.06L22.3643 73.0528C21.3659 72.4029 20.2108 72.034 19.0205 71.9851C17.8302 71.9362 16.6487 72.2091 15.6004 72.775C12.4339 74.4874 11.2412 78.5228 12.9423 81.7685L13.1342 82.1348C13.248 82.3549 13.4332 82.5297 13.6595 82.6306C13.8858 82.7315 14.1396 82.7525 14.3794 82.6901C16.2521 82.1804 18.0618 81.4622 19.7743 80.549C21.4997 79.6625 23.12 78.5852 24.605 77.3371C24.7932 77.1756 24.921 76.9549 24.9672 76.7112C25.0134 76.4674 24.9754 76.2152 24.8593 75.996L24.6117 75.5234Z" fill="white"/>
</g>
<g filter="url(#filter12_d_2527_3239)">
<path d="M375.713 146.718C375.676 147.107 375.487 147.465 375.187 147.714C374.887 147.962 374.5 148.082 374.111 148.045C373.723 148.009 373.365 147.82 373.116 147.52C372.867 147.219 372.748 146.833 372.784 146.444L373.218 141.814C373.236 141.622 373.291 141.435 373.381 141.264C373.472 141.093 373.595 140.942 373.743 140.819C373.892 140.696 374.064 140.603 374.248 140.546C374.433 140.489 374.627 140.469 374.819 140.487C375.011 140.505 375.198 140.561 375.369 140.651C375.54 140.741 375.691 140.864 375.814 141.013C375.937 141.161 376.03 141.333 376.087 141.517C376.144 141.702 376.164 141.896 376.146 142.088L375.713 146.718ZM368.546 137.641C368.19 137.483 367.785 137.474 367.421 137.615C367.058 137.757 366.765 138.036 366.608 138.393L364.236 143.776C364.078 144.133 364.069 144.538 364.211 144.901C364.352 145.265 364.632 145.557 364.988 145.715C365.345 145.872 365.75 145.881 366.114 145.74C366.477 145.599 366.77 145.319 366.927 144.962L369.299 139.579C369.456 139.222 369.465 138.818 369.324 138.454C369.183 138.09 368.903 137.798 368.546 137.641ZM362.213 134.932C362.07 134.802 361.903 134.702 361.721 134.637C361.539 134.572 361.347 134.543 361.154 134.552C360.961 134.562 360.772 134.609 360.597 134.691C360.422 134.774 360.266 134.89 360.136 135.033L357.011 138.477C356.749 138.766 356.612 139.147 356.631 139.537C356.65 139.926 356.823 140.292 357.112 140.554C357.401 140.817 357.782 140.953 358.172 140.934C358.561 140.915 358.927 140.742 359.19 140.453L362.314 137.009C362.444 136.866 362.544 136.699 362.609 136.517C362.675 136.336 362.703 136.143 362.694 135.95C362.685 135.757 362.637 135.568 362.555 135.393C362.472 135.218 362.356 135.062 362.213 134.932ZM394.069 134.424C392.866 137.153 389.53 138.629 384.675 138.579C380.249 138.535 374.947 137.247 369.732 134.949C364.518 132.651 359.99 129.607 356.971 126.371C353.657 122.822 352.496 119.363 353.698 116.634C354.319 115.227 355.857 113.409 359.668 112.737C362.145 112.3 365.22 112.419 368.591 113.083C370.044 112.105 371.698 111.465 373.432 111.211C375.165 110.958 376.933 111.096 378.605 111.617C380.278 112.138 381.812 113.028 383.095 114.222C384.377 115.415 385.375 116.881 386.015 118.512C386.343 119.342 386.576 120.206 386.71 121.088C392.968 125.722 395.719 130.68 394.069 134.424ZM383.143 126.396C383.752 125.022 383.997 123.515 383.855 122.019L383.851 122C383.699 120.418 383.124 118.908 382.186 117.626C381.247 116.344 379.981 115.339 378.52 114.717C374.103 112.838 368.904 114.949 366.934 119.42L366.711 119.924C366.576 120.226 366.548 120.564 366.631 120.884C366.714 121.204 366.903 121.486 367.167 121.684C369.255 123.213 371.508 124.503 373.883 125.529C376.242 126.592 378.712 127.385 381.247 127.896C381.572 127.959 381.908 127.908 382.201 127.754C382.493 127.599 382.724 127.35 382.857 127.047L383.143 126.396Z" fill="white"/>
</g>
<path d="M356.758 299.634C356.758 301.949 343.545 303.826 327.246 303.826C310.947 303.826 297.734 301.949 297.734 299.634C297.734 297.318 310.947 295.441 327.246 295.441C343.544 295.44 356.758 297.318 356.758 299.634Z" fill="#EDE4DD"/>
<g filter="url(#filter13_d_2527_3239)">
<path d="M308.072 250.345C302.537 242.788 296.716 234.188 297.96 224.904C299.307 214.841 308.494 207.663 311.969 198.125C313.021 195.236 313.512 192.151 313.444 189.078C313.38 186.176 317.122 184.933 318.72 187.356C322.89 193.676 324.159 201.8 321.603 209.162C320.814 211.435 319.689 213.645 319.527 216.045C319.193 220.97 322.866 225.112 325.148 229.489C327.22 233.462 328.215 237.99 327.999 242.465C327.822 246.13 326.792 249.848 324.491 252.707C322.191 255.566 318.493 257.431 314.854 256.96C311.215 256.489 308.176 254.013 308.072 250.345Z" fill="#2CD0D1"/>
<path d="M317.836 246.449C313.982 239.536 313.14 230.826 316.358 223.595C318.583 218.593 322.521 214.571 325.357 209.888C330.7 201.061 331.839 189.809 328.373 180.09C327.353 177.231 326.264 173.361 328.821 171.726C330.18 170.857 331.973 171.174 333.486 171.736C338.971 173.773 343.16 178.599 345.19 184.087C347.221 189.574 347.253 195.654 346.12 201.394C345.269 205.704 343.778 209.922 343.628 214.312C343.507 217.861 344.27 221.374 345.01 224.847C346.467 231.697 347.852 238.752 346.683 245.658C345.798 250.891 341.316 261.384 334.675 260.879C328.256 260.391 320.683 251.555 317.836 246.449Z" fill="#64E4E6"/>
<path d="M328.515 237.572C328.292 233.755 329.17 229.952 330.366 226.32C332.159 220.876 334.674 215.689 336.404 210.225C339.196 201.402 339.88 191.918 338.382 182.785" stroke="#0B334C" stroke-width="0.8869" stroke-miterlimit="10" stroke-linecap="round" stroke-linejoin="round"/>
<path d="M322.338 252.417C322.338 252.417 314.429 244.748 314.429 233.005C314.429 233.005 313.71 225.696 319.701 218.027" stroke="#0B334C" stroke-width="0.8869" stroke-miterlimit="10" stroke-linecap="round" stroke-linejoin="round"/>
<path d="M328.944 259.785C325.724 255.935 325.028 250.314 326.645 245.563C328.261 240.811 331.973 236.937 336.374 234.524C339.564 232.775 343.087 231.742 346.447 230.347C352.954 227.644 359.047 223.358 362.542 217.24C364.893 213.123 365.987 208.344 368.632 204.409C371.059 200.8 374.571 198.197 378.375 196C380.798 194.6 383.814 196.464 383.664 199.259C383.412 203.985 383.513 208.743 383.066 213.466C382.418 220.323 380.31 227.477 375.097 231.979C373.308 233.525 371.229 234.69 369.165 235.844C366.339 237.425 363.512 239.006 360.686 240.587C358 242.089 355.266 243.63 353.188 245.899C349.681 249.731 348.385 255.268 344.613 258.841C340.363 262.868 332.701 264.276 328.944 259.785Z" fill="#2CD0D1"/>
<path d="M339.043 251.347C339.177 250.204 339.817 249.186 340.514 248.27C346.979 239.768 358.818 237.17 366.247 229.496C370.245 225.365 372.708 220.027 375.098 214.799C376.715 211.261 378.339 207.703 379.312 203.938" stroke="#0B334C" stroke-width="0.8869" stroke-miterlimit="10" stroke-linecap="round" stroke-linejoin="round"/>
<path d="M344.719 299.509H310.21L307.693 257.092H347.235L344.719 299.509Z" fill="#FCB13A"/>
<path d="M351.011 252.418H303.921V262.483H351.011V252.418Z" fill="#FCB13A"/>
<path d="M314.487 262.482H347.019L314.51 265.695L314.487 262.482Z" fill="#0B334C"/>
</g>
<g filter="url(#filter14_d_2527_3239)">
<path d="M315.293 69.553V76.7752M311.682 74.9697L318.904 71.3586M311.682 71.3586L318.904 74.9697M302.654 69.553V76.7752M299.043 74.9697L306.265 71.3586M299.043 71.3586L306.265 74.9697M327.932 69.553V76.7752M324.321 74.9697L331.543 71.3586M324.321 71.3586L331.543 74.9697M306.265 64.1364C306.265 63.1787 306.646 62.2602 307.323 61.583C308 60.9058 308.919 60.5253 309.876 60.5253H320.71C321.667 60.5253 322.586 60.9058 323.263 61.583C323.94 62.2602 324.321 63.1787 324.321 64.1364M309.876 49.692C309.876 51.1286 310.447 52.5064 311.463 53.5222C312.479 54.538 313.856 55.1087 315.293 55.1087C316.729 55.1087 318.107 54.538 319.123 53.5222C320.139 52.5064 320.71 51.1286 320.71 49.692C320.71 48.2554 320.139 46.8777 319.123 45.8619C318.107 44.8461 316.729 44.2754 315.293 44.2754C313.856 44.2754 312.479 44.8461 311.463 45.8619C310.447 46.8777 309.876 48.2554 309.876 49.692Z" stroke="white" stroke-width="2" stroke-linecap="round" stroke-linejoin="round" shape-rendering="crispEdges"/>
</g>
<path d="M97.6935 86.6651C97.7808 86.451 97.9253 86.3095 98.1272 86.2407C98.3304 86.1656 98.6387 86.1736 99.0519 86.2647C99.2744 86.3138 99.4334 86.4089 99.529 86.55C99.6309 86.6925 99.6594 86.8655 99.6145 87.0689C99.6075 87.1007 99.598 87.1286 99.586 87.1526C99.5741 87.1766 99.5646 87.2046 99.5576 87.2363C99.3965 87.6341 99.2446 88.0507 99.1019 88.4859C98.9592 88.9211 98.8374 89.3675 98.7364 89.8253C98.6059 90.4165 98.5333 90.9872 98.5186 91.5373C98.5117 92.0825 98.5983 92.5816 98.7783 93.0347C98.9661 93.4828 99.2668 93.8725 99.6804 94.2038C100.102 94.5301 100.675 94.7732 101.4 94.9331C101.806 95.0229 102.182 95.029 102.526 94.9515C102.869 94.874 103.171 94.7306 103.431 94.5212C103.698 94.3068 103.921 94.036 104.1 93.7088C104.285 93.3829 104.423 93.0166 104.512 92.6097C104.602 92.2028 104.646 91.7925 104.644 91.3787C104.648 90.9663 104.619 90.5532 104.557 90.1395C104.503 89.7208 104.422 89.3029 104.314 88.8858C104.212 88.47 104.099 88.0482 103.973 87.6205C103.922 87.4292 103.912 87.2636 103.943 87.1238C103.997 86.8758 104.174 86.6948 104.472 86.5806L104.92 86.4094C105.117 86.3328 105.292 86.3114 105.444 86.3451C105.68 86.397 105.845 86.5835 105.941 86.9046C106.089 87.3839 106.225 87.8674 106.351 88.3552C106.478 88.8366 106.574 89.3244 106.638 89.8186C106.709 90.3142 106.738 90.8173 106.725 91.3279C106.72 91.8335 106.661 92.3438 106.548 92.8587C106.389 93.5771 106.124 94.2053 105.752 94.7432C105.386 95.2826 104.937 95.7169 104.404 96.046C103.873 96.3688 103.274 96.5767 102.607 96.6695C101.944 96.77 101.238 96.7376 100.488 96.5721C99.6742 96.3925 98.981 96.0896 98.4084 95.6632C97.8407 95.2446 97.3954 94.7397 97.0725 94.1484C96.751 93.5508 96.5541 92.8873 96.4816 92.158C96.4106 91.4223 96.4635 90.6539 96.6402 89.8528C96.7636 89.2934 96.9188 88.7409 97.1058 88.1955C97.3006 87.6451 97.4965 87.135 97.6935 86.6651ZM108.989 89.3172C109.01 89.2218 109.072 89.1387 109.174 89.068C109.278 88.9908 109.404 88.932 109.553 88.8916C109.703 88.8447 109.866 88.8173 110.041 88.8093C110.224 88.7963 110.401 88.8087 110.573 88.8466C110.668 88.8676 110.742 88.9106 110.794 88.9755C110.853 89.0418 110.892 89.1536 110.91 89.3111C110.93 89.4622 110.931 89.6723 110.911 89.9413C110.9 90.2054 110.867 90.5483 110.814 90.97C110.812 91.1027 110.812 91.2062 110.816 91.2803C110.827 91.3495 110.852 91.3883 110.89 91.3967C110.947 91.4094 111.026 91.3234 111.127 91.139C111.887 89.8999 112.706 89.3772 113.583 89.5708C113.99 89.6605 114.331 89.869 114.605 90.1963C114.886 90.5249 115.106 91.0101 115.264 91.6517C115.43 92.2884 115.54 93.106 115.593 94.1044C115.648 95.0965 115.654 96.3079 115.611 97.7386C115.609 97.8113 115.604 97.877 115.598 97.9356C115.592 97.9943 115.583 98.049 115.572 98.0999C115.539 98.2461 115.476 98.3655 115.383 98.4582C115.297 98.5459 115.192 98.6128 115.068 98.6588C114.946 98.6986 114.815 98.7196 114.674 98.7219C114.532 98.7306 114.395 98.7202 114.261 98.6908C113.994 98.6319 113.807 98.5605 113.698 98.4766C113.597 98.3942 113.547 98.2699 113.551 98.104C113.579 97.097 113.588 96.1987 113.575 95.4093C113.569 94.6212 113.536 93.9539 113.477 93.4075C113.425 92.856 113.346 92.4286 113.24 92.1251C113.133 91.8216 112.997 91.6516 112.832 91.6152C112.667 91.5787 112.488 91.6492 112.295 91.8268C112.111 91.9994 111.903 92.2903 111.673 92.6995C111.443 93.1087 111.19 93.6362 110.914 94.2821C110.644 94.9293 110.349 95.7076 110.029 96.6169C109.941 96.8642 109.769 97.0396 109.512 97.143C109.256 97.2465 108.957 97.2604 108.613 97.1847C108.384 97.1342 108.22 97.0479 108.12 96.9259C108.021 96.8039 107.983 96.6588 108.006 96.4907C108.241 95.1557 108.417 94.0546 108.535 93.1872C108.661 92.3149 108.752 91.615 108.808 91.0874C108.866 90.5535 108.904 90.1552 108.922 89.8924C108.94 89.6297 108.962 89.438 108.989 89.3172ZM123.103 92.7012C123.408 92.7685 123.692 92.8578 123.954 92.9689C124.218 93.0737 124.454 93.1793 124.664 93.2856C124.875 93.3856 125.055 93.4785 125.203 93.5644C125.352 93.644 125.461 93.6915 125.531 93.7069C125.589 93.7196 125.649 93.7029 125.712 93.6569C125.777 93.6045 125.856 93.5518 125.947 93.4987C126.039 93.4456 126.155 93.4045 126.294 93.3753C126.436 93.3398 126.611 93.3452 126.821 93.3914C127.063 93.4447 127.239 93.5504 127.351 93.7084C127.464 93.8601 127.501 94.0281 127.46 94.2124C126.946 96.5393 126.431 98.4989 125.913 100.091C125.396 101.678 124.848 102.94 124.267 103.879C123.687 104.817 123.063 105.453 122.396 105.786C121.729 106.119 120.992 106.196 120.185 106.018C119.816 105.937 119.45 105.769 119.086 105.516C118.728 105.263 118.413 104.97 118.14 104.637C117.865 104.309 117.654 103.966 117.507 103.607C117.366 103.249 117.327 102.927 117.39 102.641C117.411 102.546 117.486 102.446 117.616 102.341C117.746 102.236 117.897 102.14 118.07 102.051C118.243 101.963 118.418 101.895 118.595 101.847C118.772 101.799 118.918 101.788 119.033 101.814C119.153 101.84 119.244 101.91 119.306 102.024C119.366 102.144 119.415 102.285 119.453 102.446C119.497 102.609 119.538 102.785 119.577 102.974C119.614 103.169 119.673 103.352 119.755 103.523C119.838 103.695 119.951 103.846 120.095 103.978C120.238 104.116 120.433 104.213 120.681 104.267C122.067 104.573 123.348 102.636 124.524 98.4549C124.566 98.2642 124.533 98.1569 124.425 98.133C124.336 98.1134 124.256 98.1425 124.186 98.2203C123.41 98.8958 122.576 99.3487 121.686 99.5788C120.803 99.804 119.875 99.8093 118.902 99.5947C118.451 99.4951 118.049 99.3365 117.697 99.1188C117.346 98.8948 117.058 98.6311 116.831 98.3278C116.613 98.0196 116.464 97.6801 116.386 97.3095C116.309 96.9325 116.316 96.5406 116.405 96.1337C116.494 95.7332 116.651 95.3545 116.876 94.9975C117.109 94.6356 117.391 94.3111 117.721 94.0239C118.059 93.7317 118.438 93.4787 118.859 93.2648C119.279 93.0509 119.722 92.8853 120.188 92.7681C120.655 92.6445 121.134 92.5767 121.623 92.5647C122.12 92.5477 122.614 92.5932 123.103 92.7012ZM119.585 97.9052C120.456 98.0974 121.314 98.0001 122.159 97.6132C123.006 97.22 123.803 96.5557 124.549 95.6203C124.57 95.585 124.586 95.5585 124.597 95.5408C124.609 95.5168 124.617 95.4921 124.623 95.4666C124.637 95.4031 124.585 95.3216 124.467 95.2222C124.349 95.1228 124.187 95.0238 123.982 94.9253C123.777 94.8267 123.539 94.7307 123.266 94.6372C123.001 94.5387 122.729 94.4587 122.449 94.3969C121.998 94.2974 121.545 94.2776 121.092 94.3376C120.639 94.3976 120.222 94.519 119.842 94.7017C119.461 94.8845 119.137 95.1162 118.868 95.397C118.599 95.6777 118.427 95.993 118.349 96.3426C118.267 96.7177 118.337 97.0467 118.562 97.3295C118.792 97.6137 119.133 97.8056 119.585 97.9052ZM129.987 101.84C129.803 101.8 129.634 101.733 129.482 101.639C129.335 101.547 129.212 101.439 129.112 101.317C129.014 101.189 128.945 101.05 128.904 100.901C128.87 100.754 128.87 100.604 128.904 100.451C128.962 100.184 129.115 99.9912 129.361 99.8722C129.614 99.7546 129.915 99.7344 130.265 99.8115C130.43 99.848 130.582 99.9148 130.721 100.012C130.867 100.104 130.986 100.214 131.078 100.341C131.176 100.469 131.246 100.608 131.286 100.757C131.327 100.906 131.331 101.053 131.299 101.2C131.237 101.479 131.087 101.676 130.848 101.79C130.617 101.899 130.33 101.916 129.987 101.84ZM136.128 103.195C135.944 103.155 135.776 103.087 135.623 102.994C135.477 102.902 135.354 102.794 135.254 102.672C135.155 102.544 135.086 102.405 135.046 102.256C135.011 102.109 135.011 101.959 135.045 101.806C135.104 101.539 135.256 101.346 135.503 101.227C135.755 101.11 136.056 101.089 136.406 101.166C136.571 101.203 136.723 101.27 136.862 101.367C137.008 101.459 137.127 101.569 137.219 101.696C137.318 101.824 137.387 101.963 137.428 102.112C137.468 102.261 137.472 102.408 137.44 102.555C137.378 102.834 137.228 103.031 136.99 103.145C136.759 103.254 136.472 103.271 136.128 103.195Z" fill="white"/>
<g filter="url(#filter15_d_2527_3239)">
<path d="M125.261 123.592C123.144 122.35 120.725 121.718 118.27 121.766C116.24 121.658 114.221 121.409 112.225 121.02C93.0972 117.281 80.4983 101.687 83.4199 86.7414C86.3414 71.796 103.886 62.0963 123.013 65.8351C142.142 69.5746 154.74 85.1681 151.818 100.112C150.31 107.828 144.884 114.351 136.851 118.205C136.27 118.473 135.684 118.732 135.094 118.982C135.129 118.968 134.999 119.022 135.174 118.959L134.848 119.076L134.536 119.223C131.336 120.737 129.462 123.234 128.687 126.204C127.349 125.077 126.053 124.049 125.261 123.592ZM157.259 101.211C160.851 82.8377 146.015 64.472 124.116 60.1913C102.221 55.9112 81.5577 67.3359 77.9665 85.7072C74.3746 104.082 89.2139 122.448 111.109 126.728C113.487 127.193 115.845 127.471 118.173 127.578L118.188 127.578C123.793 127.348 124.895 133.746 136.496 139.22C138.878 140.346 139.304 139.772 137.782 137.36C135.026 133.003 132.849 126.353 136.831 124.47C136.95 124.43 138.473 123.765 139.058 123.49C148.43 118.996 155.325 111.106 157.26 101.207" fill="white"/>
</g>
<g filter="url(#filter16_d_2527_3239)">
<path d="M166.41 4.68042C165.815 6.07815 165.791 7.65356 166.344 9.06873C164.874 9.2594 163.535 10.0084 162.602 11.1604C161.67 12.3124 161.217 13.779 161.338 15.2559C161.458 16.7329 162.142 18.107 163.248 19.0931C164.354 20.0792 165.797 20.6018 167.278 20.5524C166.96 22.0344 167.224 23.582 168.014 24.8754C168.617 25.8262 169.485 26.5798 170.511 27.0432C171.537 27.5065 172.676 27.6595 173.788 27.4831C174.9 27.3068 175.936 26.8088 176.768 26.0507C177.601 25.2926 178.193 24.3074 178.472 23.2167C179.491 23.8155 180.668 24.0893 181.846 24.0015C182.177 23.9687 182.504 23.9111 182.825 23.8291C184.143 23.4989 185.301 22.711 186.091 21.6061C186.882 20.5012 187.254 19.1513 187.141 17.7974C187.136 17.5156 187.114 17.2344 187.073 16.9555C186.714 15.4712 185.787 14.187 184.491 13.3786C185.618 12.3635 186.306 10.9492 186.408 9.43556C186.403 9.15377 186.38 8.87256 186.339 8.59369C186.253 7.54389 185.88 6.53801 185.261 5.68569C184.642 4.83336 183.801 4.16731 182.829 3.76011C181.858 3.35291 180.793 3.22019 179.751 3.37642C178.709 3.53266 177.731 3.97184 176.921 4.64611C176.475 3.6092 175.734 2.72631 174.791 2.10734C173.847 1.48838 172.742 1.16067 171.613 1.16501C170.484 1.16935 169.382 1.50555 168.443 2.13176C167.504 2.75796 166.769 3.64652 166.332 4.68684L166.41 4.68042ZM164.858 17.1741C164.248 16.6323 163.87 15.8756 163.804 15.0619C163.737 14.2482 163.988 13.4404 164.503 12.8069C164.916 12.3217 165.464 11.9704 166.077 11.7979C166.69 11.6254 167.341 11.6394 167.946 11.8382L168.75 12.1171L169.584 12.9232C169.442 13.4716 169.39 14.0391 169.429 14.6041C169.489 15.3334 169.7 16.0422 170.049 16.6856L168.412 17.5603C167.85 17.863 167.21 17.9881 166.575 17.9192C165.941 17.8502 165.342 17.5905 164.858 17.1741ZM174.509 24.4661C173.886 24.8123 173.165 24.9359 172.463 24.8163C171.761 24.6967 171.12 24.3411 170.648 23.8083C170.175 23.2756 169.899 22.5975 169.864 21.8863C169.829 21.175 170.038 20.4731 170.456 19.8966L170.969 19.206L171.984 18.66C172.919 19.2472 174.018 19.5197 175.119 19.4377C175.317 19.4365 175.515 19.4204 175.711 19.3895L175.77 20.113L175.965 21.2094C176.083 21.836 176.007 22.4837 175.747 23.0657C175.486 23.6478 175.054 24.1364 174.509 24.4661ZM181.8 15.1335C182.515 15.2347 183.174 15.5793 183.664 16.1092C184.155 16.639 184.448 17.3219 184.494 18.0426C184.541 18.7634 184.337 19.478 183.918 20.0662C183.499 20.6544 182.89 21.0803 182.194 21.272C182.011 21.2998 181.826 21.3149 181.641 21.3169C181.106 21.3557 180.57 21.2538 180.087 21.0213C179.603 20.7889 179.189 20.434 178.885 19.9919L178.357 19.3596L178.128 18.1733C179.116 17.3334 179.761 16.1592 179.938 14.8745L181.8 15.1335ZM177.322 13.9619C177.364 14.4823 177.251 15.0035 176.997 15.4596C176.744 15.9158 176.36 16.2864 175.896 16.5247C175.431 16.7629 174.906 16.858 174.388 16.7981C173.869 16.7381 173.38 16.5256 172.982 16.1877C172.584 15.8497 172.295 15.4013 172.152 14.8992C172.009 14.3971 172.018 13.8639 172.178 13.367C172.338 12.8701 172.642 12.4317 173.051 12.1075C173.46 11.7832 173.957 11.5875 174.477 11.5451C175.175 11.4884 175.866 11.7111 176.4 12.1643C176.933 12.6176 177.265 13.2642 177.322 13.9619ZM180.935 5.96149C181.748 6.03189 182.502 6.41905 183.033 7.0396C183.564 7.66015 183.83 8.46441 183.773 9.27917C183.736 9.92064 183.503 10.5353 183.106 11.0408C182.71 11.5464 182.168 11.9187 181.554 12.108L180.78 12.3564L179.547 12.1787C179.053 10.9973 178.147 10.0358 176.996 9.47311L177.337 8.78328L177.328 8.66489L177.77 7.75497C178.046 7.16469 178.499 6.67494 179.066 6.35359C179.633 6.03224 180.286 5.89521 180.935 5.96149ZM172.834 4.05178C173.378 4.26796 173.851 4.6312 174.201 5.10089C174.55 5.57057 174.761 6.12816 174.812 6.71128L174.838 7.02698L174.775 7.87955L174.315 8.91001C173.037 9.01592 171.84 9.58399 170.95 10.508L170.417 9.98198L169.587 9.21534C169.062 8.71399 168.728 8.04591 168.642 7.32551C168.556 6.6051 168.723 5.87717 169.115 5.26636C169.506 4.65556 170.098 4.19986 170.789 3.97731C171.479 3.75476 172.226 3.77919 172.9 4.04642L172.834 4.05178Z" fill="white"/>
</g>
<g filter="url(#filter17_d_2527_3239)">
<path d="M211.743 55.9621C212.754 55.9036 213.702 55.4511 214.383 54.7017C214.933 55.5229 215.777 56.1011 216.741 56.3164C217.705 56.5318 218.715 56.3678 219.562 55.8584C220.408 55.349 221.026 54.5334 221.287 53.5806C221.549 52.6279 221.433 51.6111 220.965 50.7413C221.944 50.4921 222.79 49.8762 223.328 49.021C223.718 48.3793 223.911 47.6376 223.883 46.8876C223.856 46.1375 223.61 45.4118 223.175 44.8C222.74 44.1882 222.136 43.717 221.437 43.4446C220.737 43.1721 219.973 43.1103 219.239 43.2668C219.295 42.481 219.11 41.6969 218.708 41.0192C218.591 40.8317 218.459 40.6533 218.315 40.4855C217.728 39.7963 216.914 39.3385 216.02 39.1937C215.126 39.0489 214.209 39.2266 213.434 39.6952C213.267 39.7815 213.106 39.8785 212.952 39.9855C212.172 40.6398 211.68 41.5739 211.581 42.5872C210.64 42.2146 209.592 42.223 208.658 42.6106C208.491 42.697 208.33 42.7939 208.175 42.9009C207.574 43.2637 207.084 43.7846 206.758 44.4068C206.433 45.029 206.284 45.7286 206.329 46.4294C206.373 47.1303 206.61 47.8054 207.011 48.3812C207.413 48.9571 207.966 49.4115 208.608 49.6951C208.121 50.2686 207.813 50.9727 207.723 51.7198C207.633 52.4668 207.765 53.2239 208.102 53.8967C208.439 54.5695 208.966 55.1283 209.619 55.5036C210.271 55.8789 211.019 56.0541 211.77 56.0073L211.743 55.9621ZM219.664 53.1874C219.521 53.7126 219.181 54.1625 218.715 54.4431C218.249 54.7237 217.692 54.8135 217.161 54.6936C216.749 54.5908 216.377 54.3676 216.092 54.0525C215.808 53.7374 215.623 53.3446 215.563 52.9242L215.491 52.3614L215.725 51.6248C216.095 51.5467 216.449 51.4097 216.775 51.219C217.193 50.9671 217.554 50.6311 217.834 50.2323L218.842 50.9508C219.189 51.1966 219.454 51.542 219.6 51.9414C219.747 52.3407 219.769 52.7752 219.664 53.1874ZM221.16 45.2636C221.551 45.5327 221.839 45.9271 221.975 46.3818C222.112 46.8365 222.089 47.3242 221.911 47.7642C221.733 48.2043 221.41 48.5704 220.995 48.8019C220.581 49.0335 220.1 49.1168 219.632 49.0379L219.067 48.936L218.44 48.4917C218.514 47.7592 218.351 47.0223 217.976 46.3889C217.916 46.2709 217.848 46.1575 217.772 46.0496L218.186 45.8001L218.783 45.3587C219.123 45.1026 219.532 44.9562 219.957 44.9392C220.381 44.9222 220.801 45.0354 221.16 45.2636ZM213.426 43.6742C213.274 43.2172 213.285 42.7219 213.456 42.2718C213.627 41.8217 213.948 41.4443 214.365 41.2032C214.782 40.962 215.269 40.8719 215.744 40.9479C216.22 41.0239 216.654 41.2614 216.975 41.6205C217.046 41.7214 217.11 41.8272 217.166 41.9371C217.347 42.2452 217.445 42.5954 217.45 42.953C217.454 43.3106 217.365 43.6631 217.191 43.9756L216.97 44.4784L216.329 44.9666C215.535 44.6253 214.643 44.5883 213.823 44.8627L213.426 43.6742ZM214.053 46.6958C214.351 46.5163 214.696 46.4293 215.044 46.4458C215.391 46.4623 215.726 46.5815 216.006 46.7883C216.286 46.9951 216.498 47.2803 216.616 47.6078C216.734 47.9353 216.752 48.2903 216.668 48.6281C216.584 48.9658 216.402 49.2711 216.144 49.5053C215.887 49.7395 215.566 49.892 215.222 49.9437C214.877 49.9954 214.526 49.9438 214.211 49.7956C213.896 49.6473 213.632 49.4091 213.453 49.1108C213.212 48.711 213.14 48.2319 213.253 47.779C213.365 47.326 213.653 46.9364 214.053 46.6958ZM208.205 46.9086C208.006 46.4018 208.014 45.8371 208.227 45.3362C208.44 44.8352 208.842 44.4381 209.345 44.2303C209.739 44.0628 210.175 44.0197 210.595 44.1068C211.014 44.1939 211.397 44.407 211.692 44.7176L212.07 45.1064L212.329 45.8953C211.77 46.5403 211.464 47.3665 211.469 48.2201L210.956 48.2208L210.888 48.2616L210.213 48.267C209.779 48.277 209.352 48.1515 208.992 47.9082C208.632 47.6648 208.357 47.3154 208.205 46.9086ZM209.464 52.312C209.432 51.9231 209.509 51.533 209.686 51.1852C209.863 50.8375 210.133 50.5459 210.467 50.343L210.647 50.2341L211.175 50.0192L211.927 49.988C212.369 50.7204 213.063 51.2666 213.878 51.5246L213.722 51.9986L213.51 52.7216C213.366 53.1834 213.066 53.5807 212.661 53.8456C212.257 54.1104 211.772 54.2263 211.292 54.1735C210.811 54.1206 210.363 53.9022 210.026 53.5558C209.688 53.2093 209.482 52.7563 209.441 52.2743L209.464 52.312Z" fill="white"/>
</g>
<g filter="url(#filter18_d_2527_3239)">
<path d="M314.257 126.719C313.463 128.014 313.207 129.569 313.546 131.05C312.064 131.022 310.629 131.566 309.537 132.568C308.446 133.57 307.782 134.954 307.683 136.433C307.585 137.912 308.059 139.371 309.008 140.51C309.957 141.648 311.308 142.377 312.78 142.546C312.248 143.965 312.281 145.535 312.872 146.93C313.328 147.959 314.076 148.832 315.023 149.442C315.969 150.051 317.074 150.37 318.2 150.359C319.325 150.348 320.423 150.008 321.358 149.381C322.293 148.753 323.024 147.866 323.46 146.828C324.38 147.57 325.504 148.014 326.682 148.101C327.014 148.117 327.346 148.108 327.676 148.075C329.028 147.942 330.289 147.333 331.234 146.356C332.178 145.38 332.745 144.099 332.832 142.744C332.869 142.464 332.888 142.183 332.888 141.901C332.752 140.38 332.024 138.973 330.861 137.983C332.126 137.145 333.014 135.847 333.337 134.365C333.374 134.085 333.393 133.804 333.393 133.522C333.462 132.471 333.241 131.421 332.754 130.487C332.267 129.553 331.534 128.77 330.633 128.225C329.732 127.679 328.698 127.391 327.645 127.392C326.591 127.393 325.558 127.684 324.659 128.232C324.37 127.14 323.767 126.158 322.925 125.407C322.082 124.656 321.037 124.169 319.92 124.007C318.803 123.846 317.663 124.016 316.642 124.497C315.621 124.978 314.764 125.749 314.178 126.714L314.257 126.719ZM310.884 138.848C310.359 138.223 310.097 137.419 310.151 136.604C310.206 135.789 310.572 135.027 311.175 134.476C311.654 134.057 312.248 133.79 312.88 133.71C313.512 133.63 314.154 133.739 314.723 134.025L315.477 134.419L316.183 135.339C315.963 135.861 315.828 136.414 315.783 136.979C315.735 137.709 315.84 138.441 316.09 139.129L314.342 139.753C313.742 139.97 313.09 139.999 312.472 139.838C311.855 139.676 311.301 139.331 310.884 138.848ZM319.356 147.481C318.69 147.732 317.958 147.748 317.281 147.526C316.604 147.305 316.023 146.859 315.634 146.262C315.245 145.666 315.071 144.954 315.141 144.246C315.212 143.537 315.521 142.874 316.02 142.365L316.629 141.757L317.713 141.366C318.552 142.085 319.598 142.516 320.7 142.597C320.896 142.625 321.094 142.638 321.292 142.637L321.244 143.361L321.276 144.474C321.3 145.111 321.13 145.741 320.787 146.278C320.444 146.815 319.944 147.235 319.356 147.481ZM327.941 139.323C328.634 139.528 329.234 139.966 329.642 140.562C330.049 141.158 330.239 141.877 330.178 142.597C330.118 143.316 329.811 143.993 329.31 144.513C328.809 145.034 328.144 145.365 327.427 145.452C327.242 145.453 327.058 145.441 326.874 145.415C326.339 145.375 325.824 145.195 325.38 144.894C324.936 144.593 324.579 144.181 324.343 143.699L323.914 142.996L323.862 141.789C324.963 141.104 325.773 140.037 326.138 138.793L327.941 139.323ZM323.684 137.505C323.65 138.026 323.461 138.525 323.143 138.939C322.825 139.352 322.391 139.663 321.896 139.83C321.402 139.997 320.869 140.014 320.365 139.879C319.861 139.743 319.408 139.461 319.064 139.068C318.72 138.675 318.501 138.189 318.433 137.671C318.366 137.154 318.453 136.628 318.684 136.16C318.916 135.692 319.281 135.303 319.733 135.042C320.185 134.782 320.705 134.661 321.226 134.696C321.924 134.742 322.576 135.064 323.037 135.591C323.498 136.118 323.731 136.806 323.684 137.505ZM328.435 130.123C329.229 130.313 329.918 130.806 330.351 131.498C330.785 132.19 330.93 133.025 330.755 133.822C330.623 134.451 330.302 135.025 329.835 135.467C329.369 135.908 328.778 136.197 328.143 136.294L327.341 136.426L326.147 136.069C325.833 134.827 325.078 133.743 324.023 133.017L324.462 132.385L324.469 132.266L325.041 131.432C325.401 130.888 325.921 130.471 326.529 130.236C327.137 130.002 327.803 129.962 328.435 130.123ZM320.704 127.042C321.21 127.336 321.624 127.765 321.901 128.281C322.177 128.797 322.304 129.38 322.268 129.964L322.247 130.28L322.06 131.114L321.454 132.066C320.173 131.982 318.906 132.368 317.89 133.151L317.44 132.552L316.732 131.672C316.287 131.099 316.055 130.389 316.076 129.664C316.096 128.938 316.369 128.243 316.846 127.696C317.323 127.15 317.975 126.786 318.691 126.668C319.407 126.549 320.142 126.683 320.77 127.047L320.704 127.042Z" fill="white"/>
</g>
<g filter="url(#filter19_d_2527_3239)">
<path d="M351.551 184.111C352.56 184.202 353.564 183.894 354.348 183.253C354.77 184.146 355.52 184.842 356.442 185.197C357.364 185.552 358.388 185.539 359.3 185.159C360.212 184.78 360.943 184.064 361.342 183.16C361.74 182.256 361.776 181.234 361.44 180.304C362.446 180.202 363.373 179.717 364.032 178.951C364.511 178.373 364.811 177.668 364.894 176.922C364.978 176.176 364.841 175.422 364.501 174.753C364.161 174.084 363.632 173.529 362.981 173.156C362.329 172.784 361.583 172.611 360.834 172.657C361.004 171.888 360.937 171.085 360.639 170.356C360.55 170.153 360.447 169.958 360.329 169.77C359.849 169.002 359.112 168.43 358.249 168.155C357.386 167.88 356.453 167.921 355.617 168.27C355.44 168.331 355.266 168.404 355.097 168.487C354.23 169.019 353.605 169.871 353.358 170.858C352.483 170.351 351.445 170.205 350.464 170.451C350.286 170.512 350.112 170.584 349.944 170.668C349.296 170.938 348.734 171.381 348.321 171.948C347.907 172.516 347.657 173.186 347.598 173.886C347.539 174.586 347.673 175.288 347.986 175.917C348.299 176.546 348.779 177.076 349.372 177.451C348.806 177.947 348.398 178.598 348.199 179.324C348 180.05 348.019 180.818 348.253 181.533C348.488 182.248 348.927 182.878 349.517 183.345C350.107 183.813 350.821 184.096 351.571 184.16L351.551 184.111ZM359.794 182.533C359.576 183.031 359.173 183.426 358.671 183.635C358.168 183.844 357.604 183.851 357.097 183.654C356.704 183.492 356.369 183.216 356.134 182.863C355.899 182.509 355.774 182.093 355.776 181.669L355.788 181.101L356.128 180.407C356.505 180.384 356.876 180.301 357.226 180.16C357.676 179.973 358.083 179.693 358.419 179.34L359.31 180.199C359.617 180.493 359.828 180.874 359.914 181.291C360.001 181.707 359.959 182.14 359.794 182.533ZM362.439 174.915C362.787 175.239 363.013 175.671 363.081 176.141C363.149 176.611 363.055 177.09 362.814 177.499C362.573 177.908 362.2 178.223 361.756 178.391C361.312 178.559 360.824 178.57 360.372 178.423L359.829 178.24L359.275 177.708C359.455 176.994 359.403 176.241 359.125 175.56C359.083 175.434 359.032 175.312 358.973 175.194L359.419 175.008L360.075 174.659C360.448 174.456 360.874 174.371 361.297 174.417C361.72 174.463 362.118 174.636 362.439 174.915ZM355.024 172.205C354.941 171.731 355.024 171.242 355.26 170.822C355.495 170.402 355.868 170.076 356.316 169.899C356.764 169.722 357.259 169.704 357.718 169.849C358.177 169.995 358.572 170.293 358.836 170.696C358.892 170.806 358.939 170.92 358.978 171.037C359.113 171.368 359.158 171.729 359.11 172.084C359.062 172.438 358.921 172.774 358.703 173.057L358.411 173.522L357.705 173.91C356.97 173.456 356.093 173.288 355.241 173.439L355.024 172.205ZM355.199 175.286C355.521 175.152 355.874 175.117 356.216 175.184C356.557 175.252 356.871 175.419 357.117 175.665C357.364 175.911 357.532 176.224 357.6 176.565C357.669 176.906 357.634 177.26 357.501 177.582C357.369 177.904 357.144 178.179 356.854 178.373C356.565 178.566 356.225 178.67 355.877 178.67C355.529 178.671 355.189 178.568 354.899 178.375C354.61 178.182 354.384 177.908 354.25 177.586C354.071 177.155 354.07 176.671 354.248 176.24C354.426 175.808 354.768 175.465 355.199 175.286ZM349.383 174.636C349.261 174.105 349.352 173.548 349.637 173.084C349.921 172.62 350.377 172.286 350.905 172.155C351.32 172.047 351.757 172.068 352.16 172.216C352.562 172.364 352.909 172.631 353.155 172.982L353.471 173.422L353.612 174.24C352.964 174.796 352.54 175.568 352.419 176.413L351.911 176.339L351.838 176.369L351.17 176.275C350.739 176.221 350.335 176.034 350.015 175.74C349.695 175.447 349.474 175.061 349.383 174.636ZM349.834 180.166C349.859 179.776 349.993 179.402 350.219 179.084C350.445 178.766 350.756 178.517 351.115 178.366L351.31 178.285L351.864 178.15L352.612 178.229C352.941 179.019 353.547 179.661 354.316 180.036L354.091 180.482L353.776 181.166C353.565 181.602 353.21 181.951 352.771 182.153C352.331 182.356 351.835 182.399 351.368 182.276C350.9 182.153 350.489 181.871 350.206 181.479C349.924 181.086 349.786 180.608 349.817 180.125L349.834 180.166Z" fill="white"/>
</g>
<defs>
<filter id="filter0_d_2527_3239" x="276" y="34.9395" width="77.8506" height="62.4102" filterUnits="userSpaceOnUse" color-interpolation-filters="sRGB">
<feFlood flood-opacity="0" result="BackgroundImageFix"/>
<feColorMatrix in="SourceAlpha" type="matrix" values="0 0 0 0 0 0 0 0 0 0 0 0 0 0 0 0 0 0 127 0" result="hardAlpha"/>
<feOffset dy="4"/>
<feGaussianBlur stdDeviation="2"/>
<feComposite in2="hardAlpha" operator="out"/>
<feColorMatrix type="matrix" values="0 0 0 0 0 0 0 0 0 0 0 0 0 0 0 0 0 0 0.25 0"/>
<feBlend mode="normal" in2="BackgroundImageFix" result="effect1_dropShadow_2527_3239"/>
<feBlend mode="normal" in="SourceGraphic" in2="effect1_dropShadow_2527_3239" result="shape"/>
</filter>
<filter id="filter1_d_2527_3239" x="25.7422" y="15.4492" width="351.114" height="252.943" filterUnits="userSpaceOnUse" color-interpolation-filters="sRGB">
<feFlood flood-opacity="0" result="BackgroundImageFix"/>
<feColorMatrix in="SourceAlpha" type="matrix" values="0 0 0 0 0 0 0 0 0 0 0 0 0 0 0 0 0 0 127 0" result="hardAlpha"/>
<feOffset dy="4"/>
<feGaussianBlur stdDeviation="2"/>
<feComposite in2="hardAlpha" operator="out"/>
<feColorMatrix type="matrix" values="0 0 0 0 0 0 0 0 0 0 0 0 0 0 0 0 0 0 0.25 0"/>
<feBlend mode="normal" in2="BackgroundImageFix" result="effect1_dropShadow_2527_3239"/>
<feBlend mode="normal" in="SourceGraphic" in2="effect1_dropShadow_2527_3239" result="shape"/>
</filter>
<filter id="filter2_d_2527_3239" x="24.6768" y="106.854" width="99.9043" height="168.293" filterUnits="userSpaceOnUse" color-interpolation-filters="sRGB">
<feFlood flood-opacity="0" result="BackgroundImageFix"/>
<feColorMatrix in="SourceAlpha" type="matrix" values="0 0 0 0 0 0 0 0 0 0 0 0 0 0 0 0 0 0 127 0" result="hardAlpha"/>
<feOffset dy="4"/>
<feGaussianBlur stdDeviation="2"/>
<feComposite in2="hardAlpha" operator="out"/>
<feColorMatrix type="matrix" values="0 0 0 0 0 0 0 0 0 0 0 0 0 0 0 0 0 0 0.25 0"/>
<feBlend mode="normal" in2="BackgroundImageFix" result="effect1_dropShadow_2527_3239"/>
<feBlend mode="normal" in="SourceGraphic" in2="effect1_dropShadow_2527_3239" result="shape"/>
</filter>
<filter id="filter3_d_2527_3239" x="82.7871" y="179" width="58.3867" height="97.8008" filterUnits="userSpaceOnUse" color-interpolation-filters="sRGB">
<feFlood flood-opacity="0" result="BackgroundImageFix"/>
<feColorMatrix in="SourceAlpha" type="matrix" values="0 0 0 0 0 0 0 0 0 0 0 0 0 0 0 0 0 0 127 0" result="hardAlpha"/>
<feOffset dy="4"/>
<feGaussianBlur stdDeviation="2"/>
<feComposite in2="hardAlpha" operator="out"/>
<feColorMatrix type="matrix" values="0 0 0 0 0 0 0 0 0 0 0 0 0 0 0 0 0 0 0.25 0"/>
<feBlend mode="normal" in2="BackgroundImageFix" result="effect1_dropShadow_2527_3239"/>
<feBlend mode="normal" in="SourceGraphic" in2="effect1_dropShadow_2527_3239" result="shape"/>
</filter>
<filter id="filter4_d_2527_3239" x="69.7949" y="273.758" width="115.187" height="18.7227" filterUnits="userSpaceOnUse" color-interpolation-filters="sRGB">
<feFlood flood-opacity="0" result="BackgroundImageFix"/>
<feColorMatrix in="SourceAlpha" type="matrix" values="0 0 0 0 0 0 0 0 0 0 0 0 0 0 0 0 0 0 127 0" result="hardAlpha"/>
<feOffset dy="4"/>
<feGaussianBlur stdDeviation="2"/>
<feComposite in2="hardAlpha" operator="out"/>
<feColorMatrix type="matrix" values="0 0 0 0 0 0 0 0 0 0 0 0 0 0 0 0 0 0 0.25 0"/>
<feBlend mode="normal" in2="BackgroundImageFix" result="effect1_dropShadow_2527_3239"/>
<feBlend mode="normal" in="SourceGraphic" in2="effect1_dropShadow_2527_3239" result="shape"/>
</filter>
<filter id="filter5_d_2527_3239" x="160.773" y="94.7461" width="155.029" height="121.992" filterUnits="userSpaceOnUse" color-interpolation-filters="sRGB">
<feFlood flood-opacity="0" result="BackgroundImageFix"/>
<feColorMatrix in="SourceAlpha" type="matrix" values="0 0 0 0 0 0 0 0 0 0 0 0 0 0 0 0 0 0 127 0" result="hardAlpha"/>
<feOffset dy="4"/>
<feGaussianBlur stdDeviation="2"/>
<feComposite in2="hardAlpha" operator="out"/>
<feColorMatrix type="matrix" values="0 0 0 0 0 0 0 0 0 0 0 0 0 0 0 0 0 0 0.25 0"/>
<feBlend mode="normal" in2="BackgroundImageFix" result="effect1_dropShadow_2527_3239"/>
<feBlend mode="normal" in="SourceGraphic" in2="effect1_dropShadow_2527_3239" result="shape"/>
</filter>
<filter id="filter6_d_2527_3239" x="229.508" y="197.51" width="93.6855" height="96.584" filterUnits="userSpaceOnUse" color-interpolation-filters="sRGB">
<feFlood flood-opacity="0" result="BackgroundImageFix"/>
<feColorMatrix in="SourceAlpha" type="matrix" values="0 0 0 0 0 0 0 0 0 0 0 0 0 0 0 0 0 0 127 0" result="hardAlpha"/>
<feOffset dy="4"/>
<feGaussianBlur stdDeviation="2"/>
<feComposite in2="hardAlpha" operator="out"/>
<feColorMatrix type="matrix" values="0 0 0 0 0 0 0 0 0 0 0 0 0 0 0 0 0 0 0.25 0"/>
<feBlend mode="normal" in2="BackgroundImageFix" result="effect1_dropShadow_2527_3239"/>
<feBlend mode="normal" in="SourceGraphic" in2="effect1_dropShadow_2527_3239" result="shape"/>
</filter>
<filter id="filter7_d_2527_3239" x="118.425" y="128.941" width="174.562" height="139.588" filterUnits="userSpaceOnUse" color-interpolation-filters="sRGB">
<feFlood flood-opacity="0" result="BackgroundImageFix"/>
<feColorMatrix in="SourceAlpha" type="matrix" values="0 0 0 0 0 0 0 0 0 0 0 0 0 0 0 0 0 0 127 0" result="hardAlpha"/>
<feOffset dy="4"/>
<feGaussianBlur stdDeviation="2"/>
<feComposite in2="hardAlpha" operator="out"/>
<feColorMatrix type="matrix" values="0 0 0 0 0 0 0 0 0 0 0 0 0 0 0 0 0 0 0.25 0"/>
<feBlend mode="normal" in2="BackgroundImageFix" result="effect1_dropShadow_2527_3239"/>
<feBlend mode="normal" in="SourceGraphic" in2="effect1_dropShadow_2527_3239" result="shape"/>
</filter>
<filter id="filter8_d_2527_3239" x="118.425" y="122.941" width="174.562" height="139.584" filterUnits="userSpaceOnUse" color-interpolation-filters="sRGB">
<feFlood flood-opacity="0" result="BackgroundImageFix"/>
<feColorMatrix in="SourceAlpha" type="matrix" values="0 0 0 0 0 0 0 0 0 0 0 0 0 0 0 0 0 0 127 0" result="hardAlpha"/>
<feOffset dy="-2"/>
<feGaussianBlur stdDeviation="2"/>
<feComposite in2="hardAlpha" operator="out"/>
<feColorMatrix type="matrix" values="0 0 0 0 0 0 0 0 0 0 0 0 0 0 0 0 0 0 0.1 0"/>
<feBlend mode="normal" in2="BackgroundImageFix" result="effect1_dropShadow_2527_3239"/>
<feBlend mode="normal" in="SourceGraphic" in2="effect1_dropShadow_2527_3239" result="shape"/>
</filter>
<filter id="filter9_d_2527_3239" x="145.833" y="186.168" width="32.9844" height="44.2266" filterUnits="userSpaceOnUse" color-interpolation-filters="sRGB">
<feFlood flood-opacity="0" result="BackgroundImageFix"/>
<feColorMatrix in="SourceAlpha" type="matrix" values="0 0 0 0 0 0 0 0 0 0 0 0 0 0 0 0 0 0 127 0" result="hardAlpha"/>
<feOffset dx="-2" dy="-1"/>
<feGaussianBlur stdDeviation="2"/>
<feComposite in2="hardAlpha" operator="out"/>
<feColorMatrix type="matrix" values="0 0 0 0 0 0 0 0 0 0 0 0 0 0 0 0 0 0 0.1 0"/>
<feBlend mode="normal" in2="BackgroundImageFix" result="effect1_dropShadow_2527_3239"/>
<feBlend mode="normal" in="SourceGraphic" in2="effect1_dropShadow_2527_3239" result="shape"/>
</filter>
<filter id="filter10_d_2527_3239" x="206.608" y="186" width="32.9844" height="44.2266" filterUnits="userSpaceOnUse" color-interpolation-filters="sRGB">
<feFlood flood-opacity="0" result="BackgroundImageFix"/>
<feColorMatrix in="SourceAlpha" type="matrix" values="0 0 0 0 0 0 0 0 0 0 0 0 0 0 0 0 0 0 127 0" result="hardAlpha"/>
<feOffset dx="2" dy="-1"/>
<feGaussianBlur stdDeviation="2"/>
<feComposite in2="hardAlpha" operator="out"/>
<feColorMatrix type="matrix" values="0 0 0 0 0.144017 0 0 0 0 0.0620289 0 0 0 0 0.608617 0 0 0 0.1 0"/>
<feBlend mode="normal" in2="BackgroundImageFix" result="effect1_dropShadow_2527_3239"/>
<feBlend mode="normal" in="SourceGraphic" in2="effect1_dropShadow_2527_3239" result="shape"/>
</filter>
<filter id="filter11_d_2527_3239" x="0.651367" y="69.7637" width="38.2461" height="35.6602" filterUnits="userSpaceOnUse" color-interpolation-filters="sRGB">
<feFlood flood-opacity="0" result="BackgroundImageFix"/>
<feColorMatrix in="SourceAlpha" type="matrix" values="0 0 0 0 0 0 0 0 0 0 0 0 0 0 0 0 0 0 127 0" result="hardAlpha"/>
<feOffset dy="4"/>
<feGaussianBlur stdDeviation="2"/>
<feComposite in2="hardAlpha" operator="out"/>
<feColorMatrix type="matrix" values="0 0 0 0 0 0 0 0 0 0 0 0 0 0 0 0 0 0 0.25 0"/>
<feBlend mode="normal" in2="BackgroundImageFix" result="effect1_dropShadow_2527_3239"/>
<feBlend mode="normal" in="SourceGraphic" in2="effect1_dropShadow_2527_3239" result="shape"/>
</filter>
<filter id="filter12_d_2527_3239" x="349.236" y="111.088" width="49.3027" height="44.9648" filterUnits="userSpaceOnUse" color-interpolation-filters="sRGB">
<feFlood flood-opacity="0" result="BackgroundImageFix"/>
<feColorMatrix in="SourceAlpha" type="matrix" values="0 0 0 0 0 0 0 0 0 0 0 0 0 0 0 0 0 0 127 0" result="hardAlpha"/>
<feOffset dy="4"/>
<feGaussianBlur stdDeviation="2"/>
<feComposite in2="hardAlpha" operator="out"/>
<feColorMatrix type="matrix" values="0 0 0 0 0 0 0 0 0 0 0 0 0 0 0 0 0 0 0.25 0"/>
<feBlend mode="normal" in2="BackgroundImageFix" result="effect1_dropShadow_2527_3239"/>
<feBlend mode="normal" in="SourceGraphic" in2="effect1_dropShadow_2527_3239" result="shape"/>
</filter>
<filter id="filter13_d_2527_3239" x="293.79" y="171.188" width="93.8799" height="136.322" filterUnits="userSpaceOnUse" color-interpolation-filters="sRGB">
<feFlood flood-opacity="0" result="BackgroundImageFix"/>
<feColorMatrix in="SourceAlpha" type="matrix" values="0 0 0 0 0 0 0 0 0 0 0 0 0 0 0 0 0 0 127 0" result="hardAlpha"/>
<feOffset dy="4"/>
<feGaussianBlur stdDeviation="2"/>
<feComposite in2="hardAlpha" operator="out"/>
<feColorMatrix type="matrix" values="0 0 0 0 0 0 0 0 0 0 0 0 0 0 0 0 0 0 0.25 0"/>
<feBlend mode="normal" in2="BackgroundImageFix" result="effect1_dropShadow_2527_3239"/>
<feBlend mode="normal" in="SourceGraphic" in2="effect1_dropShadow_2527_3239" result="shape"/>
</filter>
<filter id="filter14_d_2527_3239" x="294.043" y="43.2754" width="42.5" height="42.5" filterUnits="userSpaceOnUse" color-interpolation-filters="sRGB">
<feFlood flood-opacity="0" result="BackgroundImageFix"/>
<feColorMatrix in="SourceAlpha" type="matrix" values="0 0 0 0 0 0 0 0 0 0 0 0 0 0 0 0 0 0 127 0" result="hardAlpha"/>
<feOffset dy="4"/>
<feGaussianBlur stdDeviation="2"/>
<feComposite in2="hardAlpha" operator="out"/>
<feColorMatrix type="matrix" values="0 0 0 0 0 0 0 0 0 0 0 0 0 0 0 0 0 0 0.25 0"/>
<feBlend mode="normal" in2="BackgroundImageFix" result="effect1_dropShadow_2527_3239"/>
<feBlend mode="normal" in="SourceGraphic" in2="effect1_dropShadow_2527_3239" result="shape"/>
</filter>
<filter id="filter15_d_2527_3239" x="73.4307" y="59.293" width="88.3643" height="88.4805" filterUnits="userSpaceOnUse" color-interpolation-filters="sRGB">
<feFlood flood-opacity="0" result="BackgroundImageFix"/>
<feColorMatrix in="SourceAlpha" type="matrix" values="0 0 0 0 0 0 0 0 0 0 0 0 0 0 0 0 0 0 127 0" result="hardAlpha"/>
<feOffset dy="4"/>
<feGaussianBlur stdDeviation="2"/>
<feComposite in2="hardAlpha" operator="out"/>
<feColorMatrix type="matrix" values="0 0 0 0 0 0 0 0 0 0 0 0 0 0 0 0 0 0 0.25 0"/>
<feBlend mode="normal" in2="BackgroundImageFix" result="effect1_dropShadow_2527_3239"/>
<feBlend mode="normal" in="SourceGraphic" in2="effect1_dropShadow_2527_3239" result="shape"/>
</filter>
<filter id="filter16_d_2527_3239" x="157.318" y="1.16406" width="33.8428" height="34.3906" filterUnits="userSpaceOnUse" color-interpolation-filters="sRGB">
<feFlood flood-opacity="0" result="BackgroundImageFix"/>
<feColorMatrix in="SourceAlpha" type="matrix" values="0 0 0 0 0 0 0 0 0 0 0 0 0 0 0 0 0 0 127 0" result="hardAlpha"/>
<feOffset dy="4"/>
<feGaussianBlur stdDeviation="2"/>
<feComposite in2="hardAlpha" operator="out"/>
<feColorMatrix type="matrix" values="0 0 0 0 0 0 0 0 0 0 0 0 0 0 0 0 0 0 0.25 0"/>
<feBlend mode="normal" in2="BackgroundImageFix" result="effect1_dropShadow_2527_3239"/>
<feBlend mode="normal" in="SourceGraphic" in2="effect1_dropShadow_2527_3239" result="shape"/>
</filter>
<filter id="filter17_d_2527_3239" x="202.321" y="39.1445" width="25.5645" height="25.2637" filterUnits="userSpaceOnUse" color-interpolation-filters="sRGB">
<feFlood flood-opacity="0" result="BackgroundImageFix"/>
<feColorMatrix in="SourceAlpha" type="matrix" values="0 0 0 0 0 0 0 0 0 0 0 0 0 0 0 0 0 0 127 0" result="hardAlpha"/>
<feOffset dy="4"/>
<feGaussianBlur stdDeviation="2"/>
<feComposite in2="hardAlpha" operator="out"/>
<feColorMatrix type="matrix" values="0 0 0 0 0 0 0 0 0 0 0 0 0 0 0 0 0 0 0.25 0"/>
<feBlend mode="normal" in2="BackgroundImageFix" result="effect1_dropShadow_2527_3239"/>
<feBlend mode="normal" in="SourceGraphic" in2="effect1_dropShadow_2527_3239" result="shape"/>
</filter>
<filter id="filter18_d_2527_3239" x="303.671" y="123.947" width="33.7344" height="34.4121" filterUnits="userSpaceOnUse" color-interpolation-filters="sRGB">
<feFlood flood-opacity="0" result="BackgroundImageFix"/>
<feColorMatrix in="SourceAlpha" type="matrix" values="0 0 0 0 0 0 0 0 0 0 0 0 0 0 0 0 0 0 127 0" result="hardAlpha"/>
<feOffset dy="4"/>
<feGaussianBlur stdDeviation="2"/>
<feComposite in2="hardAlpha" operator="out"/>
<feColorMatrix type="matrix" values="0 0 0 0 0 0 0 0 0 0 0 0 0 0 0 0 0 0 0.25 0"/>
<feBlend mode="normal" in2="BackgroundImageFix" result="effect1_dropShadow_2527_3239"/>
<feBlend mode="normal" in="SourceGraphic" in2="effect1_dropShadow_2527_3239" result="shape"/>
</filter>
<filter id="filter19_d_2527_3239" x="343.585" y="167.975" width="25.333" height="25.4785" filterUnits="userSpaceOnUse" color-interpolation-filters="sRGB">
<feFlood flood-opacity="0" result="BackgroundImageFix"/>
<feColorMatrix in="SourceAlpha" type="matrix" values="0 0 0 0 0 0 0 0 0 0 0 0 0 0 0 0 0 0 127 0" result="hardAlpha"/>
<feOffset dy="4"/>
<feGaussianBlur stdDeviation="2"/>
<feComposite in2="hardAlpha" operator="out"/>
<feColorMatrix type="matrix" values="0 0 0 0 0 0 0 0 0 0 0 0 0 0 0 0 0 0 0.25 0"/>
<feBlend mode="normal" in2="BackgroundImageFix" result="effect1_dropShadow_2527_3239"/>
<feBlend mode="normal" in="SourceGraphic" in2="effect1_dropShadow_2527_3239" result="shape"/>
</filter>
<linearGradient id="paint0_linear_2527_3239" x1="96.3668" y1="218.697" x2="151.748" y2="233.849" gradientUnits="userSpaceOnUse">
<stop stop-color="white" stop-opacity="0"/>
<stop offset="1" stop-color="#6AABFF" stop-opacity="0.8"/>
</linearGradient>
<linearGradient id="paint1_linear_2527_3239" x1="256.115" y1="97.3053" x2="256.115" y2="138.946" gradientUnits="userSpaceOnUse">
<stop stop-color="white"/>
<stop offset="1" stop-color="#C4DDFC"/>
</linearGradient>
<linearGradient id="paint2_linear_2527_3239" x1="238.288" y1="111.627" x2="238.288" y2="199.905" gradientUnits="userSpaceOnUse">
<stop/>
<stop offset="1" stop-color="#666666"/>
</linearGradient>
<linearGradient id="paint3_linear_2527_3239" x1="309.174" y1="271.173" x2="249.946" y2="218.97" gradientUnits="userSpaceOnUse">
<stop stop-color="white" stop-opacity="0"/>
<stop offset="1" stop-color="#6AABFF" stop-opacity="0.8"/>
</linearGradient>
<linearGradient id="paint4_linear_2527_3239" x1="205.706" y1="128.941" x2="205.706" y2="260.525" gradientUnits="userSpaceOnUse">
<stop stop-color="white" stop-opacity="0"/>
<stop offset="1" stop-color="#6AABFF" stop-opacity="0.45"/>
</linearGradient>
<linearGradient id="paint5_linear_2527_3239" x1="205.703" y1="218.889" x2="205.703" y2="260.529" gradientUnits="userSpaceOnUse">
<stop stop-color="white" stop-opacity="0"/>
<stop offset="1" stop-color="#6A90F9"/>
</linearGradient>
<linearGradient id="paint6_linear_2527_3239" x1="198.868" y1="292.478" x2="249.767" y2="265.909" gradientUnits="userSpaceOnUse">
<stop stop-color="white" stop-opacity="0"/>
<stop offset="1" stop-color="#6AABFF" stop-opacity="0.8"/>
</linearGradient>
</defs>
</svg>
