<svg width="380" height="323" viewBox="0 0 380 323" fill="none" xmlns="http://www.w3.org/2000/svg">
<g filter="url(#filter0_d_2527_3401)">
<path d="M190.34 314.318C269.551 314.318 333.764 311.127 333.764 307.191C333.764 303.255 269.551 300.064 190.34 300.064C111.13 300.064 46.917 303.255 46.917 307.191C46.917 311.127 111.13 314.318 190.34 314.318Z" fill="#EDE4DD"/>
<ellipse cx="208.009" cy="307.339" rx="72.3055" ry="4.00873" fill="black" fill-opacity="0.45"/>
<path d="M40.1602 121.839C42.0595 108.726 41.4406 95.9608 34.7717 98.8544C28.096 101.75 29.5755 123.697 37.9527 138.451L39.602 144.151C33.6847 133.292 21.4221 123.822 16.124 126.991C10.8597 130.142 19.5954 135.705 28.4213 139.455C35.14 142.311 38.8837 145.719 40.6103 147.635L48.4004 174.557C38.9812 157.389 19.6093 142.46 11.2271 147.476C2.87463 152.475 16.7348 161.301 30.7397 167.253C41.3224 171.75 47.258 177.116 50.0241 180.168L51.5776 185.536C52.5511 185.413 53.5227 185.284 54.4943 185.149L45.226 153.12C46.0304 150.43 47.5622 146.764 50.4852 142.543C55.9447 134.659 60.3591 125.291 54.226 125.438C48.9037 125.567 44.2213 136.409 43.5429 147.305L40.3377 136.229C39.9306 132.631 39.3407 127.499 40.1602 121.839Z" fill="#F99900"/>
<path d="M325.294 197.569C325.338 197.693 325.388 197.812 325.442 197.921C327.007 201.061 334.14 193.498 333.404 183.253C332.668 173.009 339.804 162.231 345.03 163.492C350.257 164.752 343.174 171.13 350.119 172.141C357.065 173.153 363.986 156.087 372.093 159.912C379.188 163.259 370.078 174.546 364.566 178.734C359.364 182.686 358.619 188.25 362.89 188.43C367.16 188.61 369.21 195.32 360.585 201.727C351.959 208.134 341.299 213.807 344.74 216.048C348.181 218.291 358.816 212.724 358.847 223.599C358.861 228.459 354.365 231.102 349.39 232.541L317.134 221.582L325.293 197.568L325.294 197.569Z" fill="#FCB13A"/>
<path d="M319.602 222.421C336.501 201.855 363.715 170.793 364.046 170.416C364.256 170.178 364.233 169.814 363.994 169.605C363.755 169.395 363.391 169.421 363.183 169.66C362.849 170.04 335.337 201.44 318.44 222.027L319.602 222.421Z" fill="#ED7C00"/>
<path d="M344.583 192.379C344.675 192.401 344.774 192.401 344.871 192.374C345.176 192.288 345.356 191.972 345.271 191.666C345.247 191.582 342.928 183.145 343.229 177.732C343.247 177.414 343.003 177.143 342.687 177.126C342.371 177.109 342.099 177.351 342.081 177.669C341.771 183.272 344.066 191.621 344.163 191.974C344.222 192.183 344.387 192.332 344.583 192.379Z" fill="#ED7C00"/>
<path d="M340.612 197.497C340.623 197.5 340.634 197.503 340.645 197.505C340.996 197.567 349.293 199.029 355.629 197.919C355.942 197.864 356.151 197.566 356.096 197.254C356.041 196.941 355.743 196.732 355.431 196.787C349.297 197.861 340.932 196.389 340.848 196.373C340.535 196.317 340.237 196.525 340.181 196.838C340.128 197.139 340.318 197.426 340.612 197.497Z" fill="#ED7C00"/>
<path d="M321.217 209.572C322.574 213.105 324.306 216.059 324.336 216.109C324.497 216.383 324.406 216.735 324.134 216.896C324 216.975 323.847 216.994 323.707 216.961C323.561 216.925 323.429 216.834 323.347 216.695C323.238 216.513 321.895 214.222 320.646 211.253L321.217 209.572Z" fill="#ED7C00"/>
<path d="M328.899 223.946C332.094 224.717 335.707 225.282 338.919 225.041C339.236 225.017 339.473 224.742 339.449 224.425C339.426 224.108 339.149 223.871 338.834 223.895C331.168 224.47 320.692 220.106 320.587 220.062C320.296 219.939 319.958 220.077 319.835 220.369C319.712 220.662 319.849 220.998 320.142 221.121C320.402 221.231 324.196 222.812 328.899 223.946Z" fill="#ED7C00"/>
<g filter="url(#filter1_d_2527_3401)">
<ellipse cx="242.954" cy="58.6806" rx="25.4524" ry="16.745" transform="rotate(25.0481 242.954 58.6806)" fill="url(#paint0_linear_2527_3401)"/>
<ellipse cx="229.382" cy="89.3059" rx="63.6311" ry="35.4994" transform="rotate(25.0481 229.382 89.3059)" fill="url(#paint1_linear_2527_3401)"/>
</g>
<g filter="url(#filter2_d_2527_3401)">
<g filter="url(#filter3_d_2527_3401)">
<path d="M275.939 152.269C265.498 174.611 229.866 180.026 196.353 164.364C162.84 148.703 144.136 117.895 154.577 95.5527C165.018 73.2106 209.156 59.4479 241.158 68.4888C270.633 87.6849 286.38 129.926 275.939 152.269Z" fill="white"/>
</g>
<path d="M275.939 152.269C265.498 174.611 229.866 180.026 196.353 164.364C162.84 148.703 144.136 117.895 154.577 95.5527C165.018 73.2106 209.156 59.4479 241.158 68.4888C270.633 87.6849 286.38 129.926 275.939 152.269Z" fill="url(#paint2_linear_2527_3401)"/>
<path d="M237.53 168.006C234.226 175.076 215.79 173.444 196.353 164.36C176.915 155.277 163.836 142.181 167.141 135.111C170.445 128.041 192.568 127.497 210.532 134.02C228.175 143.981 240.834 160.936 237.53 168.006Z" fill="url(#paint3_linear_2527_3401)"/>
</g>
<path d="M325.867 118.195C325.9 118.148 325.938 118.07 325.981 117.961C326.025 117.852 326.073 117.727 326.125 117.586C326.181 117.441 326.236 117.286 326.292 117.122C326.351 116.954 326.411 116.793 326.472 116.639C326.534 116.486 326.594 116.343 326.652 116.213C326.71 116.082 326.766 115.978 326.819 115.901C326.887 115.802 326.969 115.742 327.066 115.72C327.166 115.694 327.271 115.694 327.38 115.718C327.49 115.743 327.598 115.783 327.706 115.838C327.813 115.893 327.912 115.951 328.002 116.013C328.114 116.09 328.199 116.196 328.258 116.331C328.324 116.465 328.322 116.624 328.251 116.81C328.183 117.01 328.105 117.206 328.017 117.398C327.937 117.589 327.853 117.775 327.767 117.956C327.683 118.132 327.601 118.303 327.519 118.468C327.441 118.636 327.371 118.793 327.309 118.94C327.264 119.06 327.24 119.164 327.237 119.251C327.239 119.34 327.255 119.421 327.288 119.494C327.327 119.565 327.376 119.627 327.435 119.68C327.497 119.736 327.567 119.791 327.645 119.844C327.73 119.903 327.829 119.958 327.939 120.008C328.05 120.059 328.152 120.117 328.247 120.182C328.307 120.223 328.357 120.273 328.398 120.333C328.447 120.392 328.477 120.463 328.488 120.547C328.503 120.627 328.494 120.718 328.461 120.822C328.432 120.928 328.371 121.048 328.28 121.181C328.203 121.293 328.117 121.372 328.021 121.42C327.928 121.464 327.812 121.457 327.674 121.4L327.407 121.292C327.325 121.255 327.249 121.218 327.179 121.183C327.116 121.146 327.034 121.099 326.934 121.043C326.718 120.926 326.556 120.944 326.45 121.099C326.441 121.112 326.41 121.175 326.356 121.29C326.303 121.405 326.236 121.549 326.155 121.721C326.082 121.892 325.999 122.081 325.907 122.289C325.817 122.493 325.73 122.689 325.645 122.877C325.564 123.068 325.491 123.239 325.425 123.39C325.362 123.536 325.318 123.642 325.293 123.707C325.249 123.816 325.216 123.9 325.194 123.961C325.171 124.021 325.129 124.096 325.067 124.187C325.02 124.255 324.953 124.311 324.867 124.353C324.784 124.391 324.687 124.409 324.574 124.407C324.466 124.408 324.348 124.387 324.22 124.344C324.089 124.304 323.955 124.237 323.817 124.143C323.667 124.04 323.589 123.919 323.582 123.782C323.582 123.643 323.611 123.505 323.668 123.367C323.765 123.105 323.87 122.839 323.98 122.568C324.096 122.299 324.209 122.033 324.321 121.768C324.438 121.507 324.55 121.252 324.657 121.004C324.772 120.754 324.881 120.517 324.986 120.291C325.029 120.182 325.038 120.087 325.012 120.006C324.988 119.92 324.934 119.848 324.848 119.789C324.556 119.588 324.255 119.397 323.944 119.215C323.64 119.031 323.342 118.849 323.05 118.667C322.945 118.607 322.846 118.586 322.752 118.604C322.658 118.621 322.58 118.675 322.518 118.765C322.379 118.967 322.244 119.168 322.112 119.368C321.981 119.569 321.845 119.772 321.703 119.978C321.541 120.214 321.37 120.454 321.19 120.697C321.015 120.943 320.841 121.177 320.669 121.4C320.601 121.48 320.526 121.533 320.445 121.559C320.368 121.589 320.286 121.598 320.198 121.588C320.114 121.581 320.027 121.556 319.937 121.513C319.851 121.473 319.767 121.425 319.685 121.369C319.483 121.23 319.35 121.088 319.286 120.943C319.219 120.802 319.24 120.652 319.349 120.493C319.514 120.252 319.693 120.006 319.886 119.753C320.079 119.5 320.267 119.24 320.449 118.974C320.573 118.794 320.691 118.619 320.802 118.448C320.915 118.274 321.034 118.096 321.158 117.916C321.214 117.834 321.236 117.761 321.224 117.696C321.219 117.629 321.2 117.566 321.166 117.504C321.132 117.443 321.09 117.38 321.041 117.314C320.994 117.244 320.961 117.168 320.942 117.085C320.923 117.002 320.925 116.903 320.949 116.786C320.976 116.672 321.045 116.536 321.154 116.377C321.213 116.291 321.274 116.235 321.336 116.209C321.406 116.181 321.475 116.168 321.543 116.17C321.615 116.176 321.685 116.189 321.752 116.21C321.823 116.227 321.892 116.237 321.96 116.239C322.032 116.245 322.098 116.236 322.157 116.214C322.224 116.19 322.287 116.136 322.346 116.05C322.381 115.998 322.421 115.937 322.464 115.865C322.509 115.789 322.552 115.717 322.592 115.65C322.632 115.583 322.666 115.524 322.694 115.474C322.726 115.419 322.747 115.384 322.759 115.366C322.859 115.221 322.958 115.118 323.056 115.059C323.161 114.998 323.258 114.967 323.347 114.965C323.44 114.959 323.527 114.975 323.609 115.012C323.698 115.048 323.777 115.09 323.846 115.137C324.103 115.314 324.247 115.486 324.278 115.652C324.316 115.818 324.276 115.996 324.158 116.186L323.719 116.88C323.657 116.989 323.63 117.087 323.639 117.175C323.651 117.259 323.71 117.338 323.818 117.412L325.314 118.365C325.445 118.442 325.548 118.462 325.623 118.426C325.703 118.392 325.785 118.315 325.867 118.195ZM333.952 122.653C334.188 122.815 334.39 123.008 334.559 123.232C334.728 123.455 334.852 123.689 334.93 123.932C335.009 124.176 335.036 124.422 335.011 124.67C334.99 124.921 334.904 125.156 334.754 125.375C334.692 125.465 334.61 125.539 334.508 125.595C334.413 125.65 334.31 125.686 334.197 125.703C334.087 125.716 333.973 125.711 333.857 125.688C333.747 125.663 333.645 125.618 333.551 125.553C333.542 125.547 333.532 125.544 333.521 125.542C333.516 125.539 333.51 125.535 333.501 125.529C333.49 125.527 333.48 125.523 333.471 125.517L333.143 126.05C332.738 126.676 332.516 127.183 332.475 127.573C332.44 127.965 332.548 128.248 332.801 128.423C332.892 128.484 332.977 128.53 333.057 128.561C333.142 128.594 333.222 128.62 333.297 128.64C333.379 128.658 333.454 128.678 333.521 128.699C333.589 128.721 333.651 128.75 333.706 128.789C333.805 128.856 333.861 128.958 333.875 129.094C333.894 129.233 333.861 129.363 333.779 129.483C333.696 129.603 333.566 129.691 333.389 129.746C333.217 129.804 333.021 129.831 332.803 129.827C332.588 129.818 332.365 129.779 332.135 129.709C331.905 129.639 331.693 129.538 331.5 129.405C331.166 129.175 330.966 128.836 330.902 128.387C330.84 127.934 330.94 127.402 331.202 126.792C331.235 126.688 331.23 126.622 331.187 126.592C331.136 126.557 331.073 126.552 330.999 126.577C330.205 126.821 329.475 126.913 328.808 126.853C328.145 126.789 327.579 126.596 327.111 126.274C326.892 126.124 326.717 125.956 326.585 125.771C326.453 125.585 326.365 125.392 326.32 125.19C326.283 124.988 326.287 124.779 326.334 124.564C326.387 124.348 326.486 124.135 326.631 123.925C326.834 123.629 327.113 123.362 327.466 123.124C327.823 122.889 328.222 122.69 328.664 122.526C329.105 122.362 329.571 122.236 330.061 122.149C330.554 122.065 331.037 122.024 331.51 122.027C331.987 122.032 332.437 122.085 332.86 122.187C333.283 122.288 333.647 122.443 333.952 122.653ZM332.208 124.735C332.386 124.642 332.529 124.585 332.637 124.565C332.749 124.541 332.872 124.559 333.007 124.62C333.111 124.672 333.178 124.675 333.211 124.627C333.234 124.593 333.247 124.548 333.247 124.491C333.243 124.324 333.223 124.168 333.189 124.025C333.158 123.877 333.067 123.751 332.917 123.648C332.754 123.536 332.539 123.458 332.272 123.414C332.006 123.369 331.713 123.354 331.393 123.369C331.081 123.381 330.755 123.419 330.414 123.482C330.081 123.544 329.765 123.627 329.466 123.731C329.167 123.835 328.899 123.958 328.663 124.099C328.427 124.24 328.253 124.392 328.141 124.555C328.041 124.701 328.001 124.842 328.022 124.976C328.048 125.114 328.129 125.23 328.267 125.324C328.619 125.566 329.131 125.644 329.804 125.556C330.477 125.469 331.278 125.195 332.208 124.735ZM338.847 124.634C338.723 124.548 338.616 124.45 338.528 124.339C338.448 124.227 338.389 124.11 338.351 123.99C338.321 123.868 338.314 123.746 338.328 123.623C338.343 123.501 338.387 123.386 338.461 123.278C338.585 123.098 338.756 123.001 338.975 122.987C339.197 122.975 339.429 123.052 339.669 123.218C339.781 123.294 339.873 123.389 339.947 123.503C340.023 123.613 340.076 123.728 340.106 123.85C340.141 123.975 340.149 124.101 340.131 124.227C340.117 124.35 340.075 124.461 340.008 124.559C339.881 124.744 339.712 124.843 339.501 124.856C339.297 124.867 339.079 124.793 338.847 124.634ZM336.615 125.991C336.719 125.841 336.867 125.763 337.061 125.757C337.262 125.75 337.469 125.82 337.684 125.967C338.07 126.233 338.185 126.508 338.028 126.791C337.918 126.988 337.792 127.208 337.65 127.451C337.512 127.698 337.362 127.958 337.199 128.232C337.043 128.504 336.876 128.784 336.697 129.072C336.526 129.358 336.353 129.641 336.18 129.92C336.01 130.195 335.844 130.46 335.681 130.715C335.519 130.97 335.367 131.2 335.225 131.406C335.078 131.621 334.89 131.729 334.661 131.73C334.437 131.734 334.18 131.636 333.888 131.435C333.755 131.344 333.672 131.239 333.639 131.122C333.607 131.011 333.632 130.896 333.715 130.776C334.122 130.184 334.488 129.62 334.812 129.084C335.143 128.547 335.43 128.065 335.673 127.638C335.92 127.214 336.12 126.858 336.273 126.571C336.433 126.283 336.547 126.09 336.615 125.991ZM344.334 127.202C344.358 127.13 344.38 127.066 344.4 127.01C344.424 126.957 344.452 126.907 344.484 126.859C344.567 126.739 344.673 126.663 344.802 126.632C344.935 126.604 345.077 126.641 345.227 126.744C345.892 127.202 346.148 127.611 345.994 127.973C345.794 128.43 345.586 128.884 345.37 129.336C345.154 129.788 344.925 130.24 344.683 130.694C344.449 131.145 344.195 131.597 343.923 132.048C343.658 132.498 343.371 132.948 343.061 133.399C343.002 133.485 342.94 133.565 342.875 133.641C342.814 133.712 342.748 133.771 342.678 133.818C342.611 133.86 342.54 133.885 342.467 133.891C342.397 133.9 342.324 133.878 342.247 133.825L341.759 133.376C341.656 133.286 341.599 133.199 341.587 133.116C341.582 133.03 341.61 132.935 341.669 132.831C342.175 132.022 342.654 131.141 343.107 130.188C343.559 129.235 343.969 128.24 344.334 127.202ZM340.213 136.039C340.088 135.953 339.983 135.853 339.898 135.737C339.815 135.629 339.756 135.513 339.721 135.388C339.688 135.271 339.679 135.151 339.694 135.028C339.709 134.906 339.753 134.791 339.827 134.683C339.951 134.503 340.122 134.406 340.34 134.392C340.563 134.38 340.794 134.457 341.035 134.622C341.146 134.699 341.239 134.794 341.312 134.908C341.389 135.018 341.442 135.133 341.472 135.255C341.506 135.38 341.515 135.505 341.497 135.632C341.482 135.755 341.441 135.866 341.373 135.964C341.246 136.149 341.079 136.245 340.871 136.254C340.664 136.27 340.444 136.198 340.213 136.039Z" fill="white"/>
<circle cx="207.819" cy="79.0573" r="2.00752" transform="rotate(25.0481 207.819 79.0573)" fill="#E2E2E2"/>
<ellipse cx="210.68" cy="78.4479" rx="1.60602" ry="1.36512" transform="rotate(25.0481 210.68 78.4479)" fill="#E2E2E2"/>
<ellipse cx="217.013" cy="81.5847" rx="1.60602" ry="1.36512" transform="rotate(25.0481 217.013 81.5847)" fill="#E2E2E2"/>
<path d="M220.496 84.3614C220.027 85.3659 218.328 80.6892 214.351 78.8303C210.373 76.9715 205.914 78.7703 206.383 77.7659C206.852 76.7614 211.019 75.5892 214.997 77.4481C218.974 79.307 220.966 83.357 220.496 84.3614Z" fill="#E2E2E2"/>
<path d="M217.141 85.1003C216.796 85.8387 216.182 82.1703 213.434 80.8864C210.687 79.6024 207.916 81.5115 208.261 80.7731C208.606 80.0347 211.979 76.838 214.726 78.1219C217.474 79.4059 217.486 84.3619 217.141 85.1003Z" fill="#E2E2E2"/>
<circle cx="218.588" cy="84.0944" r="2.00752" transform="rotate(25.0481 218.588 84.0944)" fill="#E2E2E2"/>
<circle cx="244.645" cy="97.6706" r="2.00752" transform="rotate(25.0481 244.645 97.6706)" fill="#E2E2E2"/>
<ellipse cx="247.505" cy="97.0612" rx="1.60602" ry="1.36512" transform="rotate(25.0481 247.505 97.0612)" fill="#E2E2E2"/>
<ellipse cx="253.841" cy="100.194" rx="1.60602" ry="1.36512" transform="rotate(25.0481 253.841 100.194)" fill="#E2E2E2"/>
<path d="M257.321 102.975C256.852 103.979 255.154 99.3025 251.176 97.4436C247.198 95.5847 242.739 97.3836 243.208 96.3791C243.678 95.3747 247.844 94.2025 251.822 96.0614C255.799 97.9202 257.791 101.97 257.321 102.975Z" fill="#E2E2E2"/>
<path d="M253.966 103.714C253.621 104.452 253.007 100.784 250.26 99.4997C247.512 98.2157 244.741 100.125 245.086 99.3864C245.431 98.648 248.804 95.4512 251.551 96.7352C254.299 98.0192 254.311 102.975 253.966 103.714Z" fill="#E2E2E2"/>
<circle cx="255.413" cy="102.708" r="2.00752" transform="rotate(25.0481 255.413 102.708)" fill="#E2E2E2"/>
<g filter="url(#filter4_d_2527_3401)">
<path d="M258.794 127.796C259.624 130.111 259.856 132.58 258.983 134.888C258.892 135.129 258.735 135.342 258.53 135.504C258.325 135.666 258.081 135.769 257.825 135.803C257.57 135.836 257.313 135.798 257.086 135.692C256.858 135.587 256.669 135.419 256.54 135.207C252.362 128.356 244.375 125.104 240.119 123.433C237.449 122.385 236.305 119.948 236.706 117.718C236.9 116.572 237.532 115.522 238.471 114.785C241.556 112.391 246.028 114.491 248.718 116.13C253.09 118.797 257.054 122.937 258.795 127.795L258.794 127.796Z" fill="black"/>
</g>
<g filter="url(#filter5_d_2527_3401)">
<path d="M189.078 93.0777C186.631 93.7398 184.384 94.9667 182.889 96.9797C182.733 97.1893 182.637 97.4361 182.612 97.6916C182.587 97.9471 182.634 98.2008 182.747 98.4232C182.861 98.6457 183.036 98.8279 183.253 98.9486C183.47 99.0693 183.719 99.1237 183.973 99.1054C192.172 98.5142 199.4 103.011 203.198 105.442C205.581 106.967 208.307 106.484 209.998 104.891C210.873 104.082 211.423 102.979 211.533 101.811C211.873 97.9895 207.587 95.6314 204.685 94.428C199.969 92.4738 194.214 91.6851 189.078 93.0764L189.078 93.0777Z" fill="black"/>
</g>
<path d="M205.843 103.128C205.663 103.618 204.026 103.518 202.187 102.904C200.349 102.29 199.004 101.396 199.185 100.906C199.365 100.416 200.931 101.331 202.769 101.944C204.608 102.558 206.024 102.638 205.843 103.128Z" fill="white"/>
<ellipse cx="207.559" cy="103.094" rx="0.591356" ry="0.591356" transform="rotate(43.0426 207.559 103.094)" fill="white"/>
<path d="M240.919 120.041C240.664 120.497 241.805 121.675 243.467 122.673C245.129 123.67 246.683 124.109 246.937 123.653C247.192 123.197 245.479 122.604 243.817 121.606C242.155 120.609 241.174 119.586 240.919 120.041Z" fill="white"/>
<ellipse cx="0.591356" cy="0.591356" rx="0.591356" ry="0.591356" transform="matrix(-0.993801 -0.111172 -0.111172 0.993801 240.481 118.189)" fill="white"/>
<g filter="url(#filter6_d_2527_3401)">
<path d="M314.936 133.526C316.468 133.941 317.856 134.773 318.945 135.928C319.914 136.817 320.944 137.637 322.027 138.382C332.416 145.524 345.325 144.281 350.905 136.164C356.485 128.046 353.019 115.55 342.631 108.409C332.241 101.267 319.334 102.51 313.754 110.627C310.873 114.817 310.318 120.278 312.175 125.733C312.315 126.123 312.46 126.511 312.612 126.897C312.603 126.874 312.636 126.959 312.586 126.85L312.68 127.053L312.753 127.264C313.503 129.427 313.199 131.424 312.178 133.127C313.304 133.235 314.366 133.367 314.936 133.526ZM310.783 108.611C317.642 98.6319 332.844 97.1675 344.738 105.344C356.631 113.518 360.711 128.236 353.852 138.214C346.992 148.194 331.788 149.658 319.896 141.483C318.604 140.595 317.408 139.632 316.304 138.605L316.298 138.598C313.866 135.905 310.411 138.293 302.63 135.414C301.031 134.824 301.103 134.367 302.906 133.978C306.167 133.278 310.224 131.272 309.29 128.58C309.255 128.506 308.873 127.502 308.735 127.108C306.566 120.744 307.088 113.986 310.784 108.609" fill="white"/>
</g>
<g filter="url(#filter7_d_2527_3401)">
<path d="M146.301 53.6646C146.182 52.6891 145.685 51.7992 144.917 51.1857C145.678 50.6031 146.186 49.7499 146.335 48.8029C146.484 47.856 146.263 46.8881 145.717 46.1C145.172 45.3118 144.344 44.7639 143.405 44.5699C142.466 44.3758 141.489 44.5505 140.675 45.0578C140.374 44.1249 139.725 43.3436 138.864 42.8753C138.218 42.5381 137.488 42.3972 136.763 42.4699C136.039 42.5427 135.351 42.8259 134.786 43.2847C134.22 43.7435 133.801 44.3578 133.581 45.0519C133.36 45.7459 133.348 46.4894 133.544 47.1905C132.78 47.185 132.032 47.4129 131.401 47.8436C131.227 47.9689 131.062 48.1071 130.908 48.2572C130.277 48.8688 129.884 49.6849 129.799 50.5595C129.715 51.4342 129.943 52.3106 130.445 53.0323C130.539 53.1885 130.643 53.3385 130.756 53.4815C131.438 54.1963 132.373 54.6153 133.36 54.6485C133.057 55.5819 133.13 56.5966 133.563 57.4772C133.657 57.6334 133.761 57.7835 133.874 57.9264C134.263 58.4862 134.797 58.9286 135.42 59.2055C136.042 59.4823 136.729 59.583 137.405 59.4964C138.081 59.4099 138.72 59.1394 139.253 58.7146C139.785 58.2898 140.191 57.7269 140.426 57.0873C141.012 57.5236 141.712 57.778 142.441 57.819C143.17 57.86 143.895 57.6857 144.526 57.3178C145.157 56.9498 145.665 56.4046 145.988 55.7498C146.311 55.0951 146.435 54.3598 146.343 53.6355L146.301 53.6646ZM143.124 46.1659C143.642 46.2716 144.098 46.573 144.399 47.0072C144.7 47.4414 144.821 47.9749 144.738 48.4963C144.664 48.9017 144.47 49.2759 144.183 49.5711C143.895 49.8663 143.526 50.0691 143.123 50.1538L142.583 50.2579L141.855 50.0765C141.756 49.7236 141.602 49.3889 141.397 49.0851C141.127 48.6962 140.78 48.3676 140.376 48.1202L141.01 47.1003C141.226 46.7489 141.544 46.4714 141.922 46.3046C142.299 46.1378 142.719 46.0894 143.124 46.1659ZM135.359 45.2075C135.596 44.8121 135.96 44.5092 136.392 44.3489C136.824 44.1885 137.297 44.1803 137.734 44.3256C138.171 44.471 138.546 44.7611 138.796 45.1481C139.046 45.5351 139.156 45.9957 139.108 46.4539L139.045 47.0068L138.653 47.6412C137.939 47.6152 137.236 47.8183 136.646 48.2209C136.535 48.2858 136.43 48.3589 136.33 48.4395L136.063 48.0535L135.598 47.5027C135.329 47.1901 135.162 46.8027 135.12 46.3925C135.077 45.9823 135.16 45.5688 135.359 45.2075ZM134.298 52.7944C133.865 52.9693 133.385 52.9896 132.938 52.8518C132.492 52.714 132.107 52.4265 131.848 52.0379C131.588 51.6493 131.471 51.1832 131.515 50.7181C131.559 50.253 131.762 49.8173 132.09 49.4845C132.184 49.4097 132.282 49.3415 132.385 49.2805C132.672 49.0855 133.005 48.969 133.351 48.9427C133.697 48.9163 134.044 48.9808 134.357 49.13L134.858 49.313L135.37 49.9032C135.089 50.6935 135.108 51.5597 135.425 52.3367L134.298 52.7944ZM137.185 52.0004C136.993 51.7228 136.888 51.3943 136.882 51.0567C136.877 50.7191 136.971 50.3873 137.154 50.1035C137.337 49.8197 137.6 49.5965 137.91 49.4622C138.22 49.3278 138.563 49.2884 138.895 49.3488C139.227 49.4093 139.534 49.5669 139.777 49.8017C140.019 50.0365 140.187 50.338 140.258 50.6681C140.329 50.9982 140.301 51.342 140.177 51.6561C140.053 51.9701 139.839 52.2403 139.561 52.4325C139.189 52.6903 138.729 52.7895 138.284 52.7085C137.838 52.6275 137.443 52.3728 137.185 52.0004ZM137.753 57.6503C137.275 57.8743 136.727 57.9015 136.229 57.7259C135.731 57.5504 135.321 57.1861 135.089 56.7117C134.902 56.3402 134.834 55.9207 134.892 55.5092C134.951 55.0976 135.133 54.7138 135.416 54.4089L135.769 54.0191L136.517 53.7195C137.176 54.2211 137.995 54.466 138.821 54.4086L138.854 54.9054L138.897 54.9685L138.944 55.6213C138.981 56.0413 138.886 56.4622 138.672 56.8257C138.459 57.1893 138.137 57.4774 137.753 57.6503ZM142.907 56.0967C142.533 56.1518 142.15 56.1016 141.802 55.9516C141.455 55.8017 141.156 55.558 140.939 55.2478L140.822 55.0794L140.581 54.5815L140.505 53.8559C141.187 53.3825 141.673 52.6769 141.872 51.8712L142.341 51.9933L143.054 52.1537C143.51 52.2646 143.913 52.5306 144.195 52.9061C144.476 53.2817 144.618 53.7434 144.597 54.2122C144.575 54.681 144.392 55.1278 144.077 55.476C143.762 55.8242 143.336 56.0523 142.872 56.121L142.907 56.0967Z" fill="white"/>
</g>
<g filter="url(#filter8_d_2527_3401)">
<path d="M174.748 20.7978C174.201 21.158 173.816 21.7183 173.677 22.3585C173.104 22.0766 172.444 22.0262 171.834 22.2178C171.225 22.4094 170.712 22.8283 170.403 23.3876C170.094 23.947 170.012 24.6038 170.174 25.2219C170.337 25.84 170.731 26.3719 171.275 26.7074C170.807 27.164 170.532 27.7829 170.508 28.436C170.498 28.9214 170.63 29.3992 170.888 29.8104C171.146 30.2216 171.519 30.5482 171.961 30.75C172.402 30.9518 172.893 31.02 173.373 30.9461C173.853 30.8722 174.301 30.6595 174.661 30.3342C174.884 30.7923 175.242 31.1713 175.686 31.4208C175.813 31.4878 175.944 31.5452 176.079 31.5924C176.631 31.788 177.235 31.781 177.783 31.5726C178.33 31.3641 178.786 30.9678 179.068 30.4545C179.134 30.3521 179.192 30.2456 179.244 30.1357C179.469 29.5167 179.442 28.8342 179.17 28.2348C179.817 28.139 180.401 27.7948 180.799 27.2753C180.864 27.1729 180.923 27.0664 180.975 26.9565C181.194 26.5586 181.3 26.1082 181.281 25.6544C181.262 25.2005 181.118 24.7606 180.866 24.3826C180.615 24.0047 180.264 23.7031 179.852 23.5108C179.441 23.3185 178.984 23.2428 178.533 23.2921C178.62 22.8132 178.564 22.3193 178.372 21.8718C178.181 21.4243 177.862 21.043 177.456 20.7754C177.049 20.5078 176.573 20.3657 176.086 20.3667C175.599 20.3677 175.123 20.5119 174.718 20.7813L174.748 20.7978ZM171.211 24.9165C171.121 24.5762 171.165 24.2142 171.336 23.906C171.506 23.5979 171.788 23.3674 172.125 23.2626C172.389 23.1867 172.669 23.1912 172.931 23.2755C173.192 23.3597 173.423 23.52 173.593 23.7357L173.815 24.0277L173.922 24.5161C173.741 24.6794 173.587 24.8709 173.466 25.0832C173.314 25.3595 173.22 25.6645 173.192 25.9788L172.395 25.9027C172.121 25.8774 171.861 25.7697 171.65 25.5936C171.438 25.4175 171.285 25.1814 171.211 24.9165ZM172.939 29.8379C172.633 29.8139 172.344 29.6861 172.12 29.4757C171.897 29.2653 171.751 28.9849 171.709 28.6808C171.666 28.3767 171.728 28.0671 171.885 27.8032C172.042 27.5393 172.285 27.337 172.573 27.2295L172.922 27.1038L173.417 27.1496C173.613 27.5837 173.942 27.9436 174.358 28.1768C174.429 28.2236 174.504 28.265 174.582 28.3006L174.43 28.5746L174.239 29.0151C174.132 29.2684 173.95 29.4829 173.718 29.63C173.485 29.777 173.214 29.8496 172.939 29.8379ZM177.784 28.2236C178.017 28.4305 178.172 28.7113 178.222 29.0188C178.271 29.3262 178.214 29.6414 178.059 29.9114C177.903 30.1814 177.66 30.3896 177.369 30.501C177.078 30.6124 176.758 30.6201 176.462 30.523C176.39 30.4894 176.32 30.4507 176.253 30.4073C176.051 30.2937 175.883 30.1293 175.765 29.9304C175.646 29.7316 175.582 29.5053 175.578 29.274L175.539 28.9209L175.74 28.44C176.295 28.3739 176.807 28.1057 177.177 27.6866L177.784 28.2236ZM176.455 26.7347C176.346 26.9317 176.181 27.0921 175.981 27.1954C175.781 27.2988 175.555 27.3405 175.331 27.3153C175.107 27.2901 174.896 27.1992 174.724 27.0539C174.552 26.9087 174.427 26.7157 174.365 26.4994C174.302 26.2831 174.306 26.0531 174.374 25.8386C174.442 25.6241 174.573 25.4347 174.749 25.2943C174.925 25.1539 175.138 25.0689 175.363 25.05C175.587 25.031 175.812 25.079 176.009 25.1879C176.273 25.3339 176.469 25.5789 176.552 25.869C176.636 26.159 176.601 26.4705 176.455 26.7347ZM179.661 24.7218C179.936 24.9411 180.115 25.2599 180.158 25.6095C180.2 25.9591 180.104 26.3115 179.89 26.5908C179.723 26.8123 179.493 26.9776 179.23 27.0646C178.967 27.1517 178.683 27.1563 178.417 27.0779L178.08 26.9825L177.68 26.6246C177.784 26.0824 177.687 25.5207 177.408 25.0443L177.695 24.8778L177.72 24.8329L178.096 24.6115C178.336 24.4653 178.616 24.3974 178.896 24.4171C179.176 24.4369 179.444 24.5434 179.661 24.7218ZM177.206 22.1039C177.35 22.3113 177.433 22.5546 177.447 22.8066C177.46 23.0587 177.403 23.3095 177.282 23.531L177.216 23.6506L176.99 23.9419L176.579 24.2026C176.095 23.9357 175.529 23.8545 174.989 23.9741L174.923 23.6581L174.808 23.1846C174.739 22.8794 174.778 22.5597 174.919 22.2804C175.06 22.001 175.293 21.7793 175.58 21.6532C175.866 21.5271 176.187 21.5045 176.489 21.5893C176.79 21.674 177.052 21.8608 177.231 22.1176L177.206 22.1039Z" fill="white"/>
</g>
<g filter="url(#filter9_d_2527_3401)">
<path d="M303.705 77.608C303.586 76.6325 303.089 75.7426 302.321 75.1291C303.083 74.5465 303.59 73.6932 303.739 72.7463C303.888 71.7994 303.667 70.8315 303.121 70.0434C302.576 69.2552 301.748 68.7073 300.809 68.5132C299.87 68.3192 298.893 68.4939 298.08 69.0011C297.778 68.0683 297.129 67.287 296.268 66.8186C295.622 66.4814 294.892 66.3405 294.168 66.4133C293.443 66.486 292.756 66.7693 292.19 67.2281C291.625 67.6869 291.206 68.3012 290.985 68.9952C290.765 69.6893 290.752 70.4327 290.949 71.1338C290.184 71.1284 289.437 71.3563 288.805 71.787C288.631 71.9123 288.466 72.0505 288.313 72.2005C287.682 72.8122 287.289 73.6282 287.204 74.5029C287.119 75.3776 287.348 76.254 287.849 76.9756C287.943 77.1318 288.047 77.2819 288.16 77.4249C288.842 78.1397 289.777 78.5587 290.764 78.5918C290.461 79.5253 290.534 80.5399 290.967 81.4205C291.061 81.5768 291.165 81.7268 291.278 81.8698C291.667 82.4296 292.202 82.872 292.824 83.1488C293.447 83.4257 294.133 83.5263 294.809 83.4398C295.485 83.3532 296.124 83.0828 296.657 82.658C297.19 82.2332 297.596 81.6703 297.83 81.0307C298.416 81.4669 299.117 81.7214 299.846 81.7624C300.575 81.8033 301.3 81.629 301.93 81.2611C302.561 80.8932 303.069 80.3479 303.392 79.6932C303.716 79.0385 303.839 78.3032 303.747 77.5788L303.705 77.608ZM300.529 70.1092C301.046 70.215 301.503 70.5163 301.803 70.9505C302.104 71.3847 302.225 71.9182 302.142 72.4397C302.068 72.8451 301.875 73.2192 301.587 73.5144C301.3 73.8096 300.931 74.0125 300.527 74.0971L299.987 74.2013L299.259 74.0198C299.161 73.667 299.006 73.3323 298.801 73.0285C298.532 72.6396 298.184 72.311 297.78 72.0636L298.414 71.0437C298.63 70.6923 298.949 70.4148 299.326 70.248C299.704 70.0811 300.123 70.0328 300.529 70.1092ZM292.764 69.1508C293 68.7554 293.364 68.4526 293.796 68.2922C294.228 68.1319 294.701 68.1237 295.139 68.269C295.576 68.4143 295.95 68.7045 296.2 69.0914C296.45 69.4784 296.56 69.9391 296.513 70.3973L296.449 70.9501L296.058 71.5845C295.344 71.5586 294.64 71.7617 294.05 72.1643C293.939 72.2291 293.834 72.3022 293.734 72.3829L293.467 71.9968L293.003 71.4461C292.734 71.1335 292.567 70.7461 292.524 70.3359C292.481 69.9257 292.565 69.5122 292.764 69.1508ZM291.703 76.7378C291.269 76.9127 290.789 76.9329 290.343 76.7951C289.896 76.6573 289.511 76.3699 289.252 75.9813C288.993 75.5926 288.875 75.1265 288.919 74.6614C288.964 74.1963 289.167 73.7607 289.495 73.4279C289.588 73.3531 289.686 73.2849 289.789 73.2238C290.076 73.0289 290.41 72.9124 290.756 72.886C291.102 72.8596 291.448 72.9242 291.762 73.0733L292.262 73.2564L292.775 73.8466C292.493 74.6369 292.513 75.5031 292.829 76.28L291.703 76.7378ZM294.59 75.9438C294.397 75.6661 294.292 75.3377 294.286 75.0001C294.281 74.6624 294.376 74.3307 294.559 74.0469C294.742 73.7631 295.005 73.5399 295.314 73.4055C295.624 73.2712 295.967 73.2318 296.299 73.2922C296.631 73.3526 296.938 73.5102 297.181 73.745C297.424 73.9799 297.591 74.2814 297.662 74.6115C297.734 74.9416 297.706 75.2854 297.582 75.5994C297.457 75.9135 297.243 76.1837 296.965 76.3759C296.593 76.6336 296.134 76.7329 295.688 76.6519C295.242 76.5708 294.847 76.3161 294.59 75.9438ZM295.157 81.5936C294.679 81.8177 294.132 81.8448 293.633 81.6693C293.135 81.4937 292.726 81.1295 292.493 80.655C292.307 80.2836 292.238 79.864 292.296 79.4525C292.355 79.041 292.538 78.6571 292.82 78.3523L293.173 77.9625L293.921 77.6629C294.58 78.1644 295.399 78.4093 296.225 78.352L296.258 78.8487L296.302 78.9119L296.348 79.5647C296.385 79.9846 296.29 80.4056 296.076 80.7691C295.863 81.1326 295.542 81.4208 295.157 81.5936ZM300.312 80.0401C299.937 80.0952 299.554 80.0449 299.207 79.895C298.859 79.7451 298.56 79.5014 298.343 79.1912L298.226 79.0227L297.986 78.5249L297.909 77.7992C298.591 77.3258 299.077 76.6203 299.276 75.8146L299.745 75.9366L300.458 76.097C300.914 76.2079 301.317 76.474 301.599 76.8495C301.88 77.225 302.023 77.6867 302.001 78.1555C301.98 78.6244 301.796 79.0711 301.481 79.4194C301.167 79.7676 300.741 79.9956 300.276 80.0644L300.312 80.0401Z" fill="white"/>
</g>
<g filter="url(#filter10_d_2527_3401)">
<path d="M298.572 148.702C298.025 149.062 297.641 149.623 297.502 150.263C296.928 149.981 296.268 149.93 295.659 150.122C295.049 150.314 294.536 150.733 294.227 151.292C293.918 151.851 293.836 152.508 293.999 153.126C294.161 153.744 294.555 154.276 295.099 154.612C294.631 155.068 294.357 155.687 294.332 156.34C294.322 156.826 294.454 157.303 294.712 157.715C294.97 158.126 295.343 158.452 295.785 158.654C296.226 158.856 296.717 158.924 297.197 158.85C297.677 158.777 298.125 158.564 298.485 158.238C298.708 158.697 299.066 159.076 299.51 159.325C299.637 159.392 299.768 159.449 299.903 159.497C300.456 159.692 301.059 159.685 301.607 159.477C302.154 159.268 302.61 158.872 302.892 158.359C302.958 158.256 303.017 158.15 303.069 158.04C303.293 157.421 303.267 156.739 302.994 156.139C303.641 156.043 304.225 155.699 304.623 155.18C304.688 155.077 304.747 154.971 304.799 154.861C305.018 154.463 305.124 154.013 305.105 153.559C305.086 153.105 304.943 152.665 304.691 152.287C304.439 151.909 304.088 151.607 303.676 151.415C303.265 151.223 302.808 151.147 302.357 151.196C302.444 150.718 302.388 150.224 302.197 149.776C302.005 149.329 301.686 148.947 301.28 148.68C300.873 148.412 300.397 148.27 299.91 148.271C299.423 148.272 298.948 148.416 298.542 148.686L298.572 148.702ZM295.035 152.821C294.945 152.48 294.989 152.118 295.16 151.81C295.33 151.502 295.613 151.272 295.949 151.167C296.213 151.091 296.493 151.096 296.755 151.18C297.016 151.264 297.247 151.424 297.417 151.64L297.639 151.932L297.747 152.42C297.565 152.584 297.411 152.775 297.29 152.987C297.138 153.264 297.045 153.569 297.016 153.883L296.22 153.807C295.946 153.782 295.686 153.674 295.474 153.498C295.263 153.322 295.109 153.086 295.035 152.821ZM296.763 157.742C296.457 157.718 296.168 157.59 295.945 157.38C295.721 157.17 295.576 156.889 295.533 156.585C295.49 156.281 295.553 155.971 295.71 155.708C295.867 155.444 296.109 155.241 296.397 155.134L296.746 155.008L297.241 155.054C297.437 155.488 297.766 155.848 298.182 156.081C298.253 156.128 298.328 156.169 298.406 156.205L298.255 156.479L298.063 156.919C297.956 157.173 297.774 157.387 297.542 157.534C297.31 157.681 297.038 157.754 296.763 157.742ZM301.609 156.128C301.841 156.335 301.996 156.616 302.046 156.923C302.096 157.23 302.038 157.546 301.883 157.816C301.728 158.086 301.484 158.294 301.193 158.405C300.902 158.517 300.582 158.524 300.286 158.427C300.214 158.394 300.144 158.355 300.077 158.312C299.875 158.198 299.707 158.034 299.589 157.835C299.471 157.636 299.406 157.41 299.403 157.178L299.364 156.825L299.564 156.344C300.12 156.278 300.631 156.01 301.002 155.591L301.609 156.128ZM300.279 154.639C300.17 154.836 300.005 154.996 299.805 155.1C299.605 155.203 299.379 155.245 299.155 155.22C298.932 155.194 298.72 155.103 298.548 154.958C298.376 154.813 298.251 154.62 298.189 154.404C298.127 154.187 298.13 153.957 298.198 153.743C298.267 153.528 298.397 153.339 298.573 153.199C298.749 153.058 298.963 152.973 299.187 152.954C299.411 152.935 299.636 152.983 299.833 153.092C300.097 153.238 300.293 153.483 300.376 153.773C300.46 154.063 300.425 154.375 300.279 154.639ZM303.485 152.626C303.761 152.845 303.939 153.164 303.982 153.514C304.025 153.863 303.928 154.216 303.714 154.495C303.547 154.717 303.317 154.882 303.054 154.969C302.791 155.056 302.507 155.061 302.242 154.982L301.904 154.887L301.504 154.529C301.608 153.987 301.512 153.425 301.233 152.949L301.52 152.782L301.544 152.737L301.92 152.516C302.16 152.37 302.44 152.302 302.72 152.321C303.001 152.341 303.268 152.448 303.485 152.626ZM301.03 150.008C301.174 150.216 301.257 150.459 301.271 150.711C301.284 150.963 301.227 151.214 301.106 151.435L301.04 151.555L300.814 151.846L300.404 152.107C299.919 151.84 299.354 151.759 298.813 151.878L298.747 151.562L298.632 151.089C298.563 150.784 298.602 150.464 298.743 150.185C298.884 149.905 299.118 149.684 299.404 149.558C299.69 149.431 300.012 149.409 300.313 149.494C300.614 149.578 300.876 149.765 301.055 150.022L301.03 150.008Z" fill="white"/>
</g>
<path d="M76.1867 230.623C76.1581 230.767 76.1234 230.904 76.0813 231.032C74.8729 234.717 65.8609 227.59 65.0247 216.269C64.1878 204.95 54.6578 194.307 49.145 196.524C43.6319 198.74 52.3993 204.579 44.9666 206.798C37.5343 209.018 27.2309 191.465 18.9794 196.947C11.7567 201.745 23.5282 212.626 30.2267 216.321C36.5478 219.81 38.254 225.774 33.6127 226.655C28.9729 227.537 27.8065 235.202 38.2646 240.826C48.7227 246.45 61.2887 250.944 57.8849 253.945C54.4816 256.95 41.9611 252.567 43.6701 264.463C44.4334 269.779 62.2991 280.388 84.8042 270.433L88.9569 255.573L76.1867 230.623Z" fill="#FCB13A"/>
<path d="M86.3925 256.884C64.618 237.103 29.8831 207.5 29.4609 207.14C29.194 206.914 29.1607 206.512 29.3881 206.246C29.6159 205.978 30.0168 205.947 30.2837 206.175C30.7089 206.538 65.8239 236.463 87.6002 256.267L86.3925 256.884Z" fill="#ED7C00"/>
<path d="M54.2617 228.04C54.1651 228.079 54.0569 228.095 53.9464 228.08C53.5984 228.036 53.3514 227.719 53.3956 227.371C53.4081 227.275 54.5917 217.678 53.3952 211.807C53.3249 211.463 53.5478 211.127 53.8905 211.058C54.2339 210.988 54.5697 211.21 54.6396 211.553C55.8771 217.631 54.7053 227.128 54.6558 227.529C54.6255 227.767 54.4682 227.957 54.2617 228.04Z" fill="#ED7C00"/>
<path d="M59.4267 232.998C59.4149 233.004 59.4027 233.008 59.3912 233.012C59.018 233.136 50.1801 236.064 43.0733 235.866C42.7231 235.856 42.4464 235.564 42.4565 235.213C42.4666 234.863 42.7583 234.586 43.109 234.596C49.9872 234.788 58.8989 231.837 58.9887 231.808C59.3214 231.696 59.6809 231.876 59.7925 232.209C59.8982 232.528 59.7355 232.874 59.4267 232.998Z" fill="#ED7C00"/>
<path d="M82.5696 243.096C81.6515 247.176 80.2315 250.685 80.2068 250.743C80.0738 251.068 80.2298 251.439 80.5537 251.572C80.7129 251.636 80.8834 251.633 81.0311 251.574C81.1849 251.511 81.3144 251.39 81.3818 251.225C81.471 251.008 82.5723 248.287 83.463 244.841L82.5696 243.096Z" fill="#ED7C00"/>
<path d="M76.474 260.04C73.1042 261.395 69.2437 262.592 65.6926 262.843C65.3427 262.868 65.0394 262.605 65.0143 262.255C64.9892 261.905 65.2534 261.601 65.6026 261.576C74.0766 260.976 84.8321 254.526 84.9396 254.461C85.2386 254.28 85.6304 254.376 85.8117 254.676C85.9935 254.977 85.8975 255.366 85.5969 255.548C85.3299 255.711 81.434 258.046 76.474 260.04Z" fill="#ED7C00"/>
<path d="M166.453 115.059C154.484 69.1721 100.553 54.39 69.6448 88.6835C69.201 89.1758 68.7573 89.6766 68.3143 90.1859C24.0034 141.096 44.9358 266.552 137.412 298.349C229.888 330.147 326.076 272.081 331.48 220.175C336.884 168.268 294.22 151.958 228.01 166.473C190.603 174.674 173.903 143.624 166.453 115.059Z" fill="#EDE4DD"/>
<path d="M306.739 306.672H291.415C289.332 306.672 287.484 305.331 286.841 303.348L280.342 283.345C280.076 282.527 280.647 281.677 281.505 281.61C293.337 280.693 305.053 280.692 316.653 281.608C317.509 281.675 318.079 282.526 317.813 283.343L311.314 303.348C310.67 305.33 308.823 306.672 306.739 306.672Z" fill="#F99900"/>
<path d="M316.453 283.065C316.453 283.597 308.721 284.029 299.182 284.029C289.644 284.029 281.912 283.598 281.912 283.065C281.912 282.533 289.644 282.102 299.182 282.102C308.721 282.102 316.453 282.533 316.453 283.065Z" fill="#373543"/>
<path d="M301.031 283.191L299.346 282.94C302.436 262.198 303.786 239.749 303.475 214.31L305.179 214.289C305.492 239.82 304.135 262.358 301.031 283.191Z" fill="#3043BC"/>
<path d="M301.519 265.234C301.363 258.263 292.24 253.133 292.147 253.081L292.972 251.59C293.383 251.817 303.044 257.241 303.223 265.196L301.519 265.234Z" fill="#3043BC"/>
<path d="M303.738 259.43L302.065 259.099C304.626 246.177 313.652 240.696 314.035 240.469L314.905 241.934C314.817 241.986 306.143 247.285 303.738 259.43Z" fill="#3043BC"/>
<path d="M273.124 252.068C271.126 255.089 273.371 261.62 273.371 261.62L278.689 272.438L288.314 267.391C288.314 267.391 287.066 259.032 288.042 259.226C289.017 259.421 290.507 266.561 290.507 266.561L295.158 263.562C295.158 263.562 291.573 254.229 293.547 255.131C295.521 256.032 297.645 261.903 297.645 261.903C297.645 261.903 298.935 261.782 300.616 257.808C302.295 253.835 301.245 246.403 296.126 245.382C291.008 244.361 288.01 247.437 288.01 247.437C286.398 240.273 280.626 241.781 277.457 242.416C274.289 243.052 272.974 248.365 272.974 248.365C272.974 248.365 281.237 246.972 280.726 248.898C280.215 250.822 273.124 252.068 273.124 252.068ZM293.297 247.516C293.297 247.516 296.016 246.971 296.547 248.672C297.078 250.372 293.363 251.01 292.083 250.245C290.801 249.483 291.456 248.018 293.297 247.516ZM278.296 255.017C279.754 253.578 281.548 254.104 281.548 254.104C281.548 254.104 281.843 255.657 280.483 257.218C279.125 258.781 276.547 258.751 276.547 258.751C276.547 258.751 276.837 256.453 278.296 255.017Z" fill="#375BC9"/>
<path d="M274.366 211.972C271.477 214.928 272.588 222.729 272.588 222.729L276.22 235.997L288.091 232.412C288.091 232.412 288.493 222.776 289.543 223.204C290.594 223.632 290.728 231.953 290.728 231.953L296.585 229.594C296.585 229.594 294.576 218.364 296.594 219.798C298.613 221.232 299.73 228.269 299.73 228.269C299.73 228.269 301.202 228.411 303.941 224.319C306.676 220.228 307.1 211.674 301.582 209.427C296.068 207.181 292.046 209.984 292.046 209.984C291.781 201.609 284.987 202.058 281.301 202.087C277.613 202.118 274.997 207.789 274.997 207.789C274.997 207.789 284.555 208.006 283.569 210.054C282.58 212.102 274.366 211.972 274.366 211.972ZM297.952 211.211C297.952 211.211 301.117 211.186 301.346 213.206C301.575 215.226 297.275 215.141 296.004 214.009C294.732 212.878 295.781 211.379 297.952 211.211ZM279.528 216.39C281.471 215.091 283.369 216.066 283.369 216.066C283.369 216.066 283.365 217.87 281.505 219.327C279.647 220.786 276.763 220.198 276.763 220.198C276.763 220.198 277.584 217.685 279.528 216.39Z" fill="#375BC9"/>
<path d="M323.91 236.854C323.523 234.853 332.085 236.839 332.085 236.839C332.085 236.839 331.118 231.322 327.842 230.456C324.568 229.592 318.627 227.656 316.38 234.864C316.38 234.864 313.473 231.517 308.024 232.211C302.572 232.905 300.895 240.425 302.348 244.597C303.803 248.772 305.148 248.983 305.148 248.983C305.148 248.983 307.832 243.131 309.973 242.346C312.115 241.561 307.628 250.849 307.628 250.849L312.277 254.229C312.277 254.229 314.394 247.038 315.432 246.907C316.47 246.774 314.513 255.228 314.513 255.228L324.22 261.041L330.641 250.353C330.641 250.353 333.504 243.836 331.642 240.613C331.642 240.613 324.298 238.856 323.91 236.854ZM311.89 237.456C310.487 238.15 306.638 237.244 307.328 235.543C308.017 233.843 310.828 234.585 310.828 234.585C312.72 235.225 313.294 236.764 311.89 237.456ZM327.532 247.205C327.532 247.205 324.824 247.059 323.52 245.37C322.214 243.683 322.644 242.117 322.644 242.117C322.644 242.117 324.568 241.702 325.986 243.271C327.405 244.838 327.532 247.205 327.532 247.205Z" fill="#375BC9"/>
<path d="M126.41 307.081H96.0629C91.9361 307.081 88.2776 304.423 87.0033 300.498L74.1332 260.883C73.6066 259.262 74.7366 257.579 76.4361 257.447C99.8689 255.631 123.071 255.63 146.043 257.443C147.74 257.576 148.868 259.26 148.342 260.879L135.47 300.498C134.196 304.422 130.537 307.081 126.41 307.081Z" fill="#F99900"/>
<path d="M145.647 260.322C145.647 261.376 130.335 262.231 111.445 262.231C92.5549 262.231 77.2422 261.377 77.2422 260.322C77.2422 259.269 92.5549 258.414 111.445 258.414C130.335 258.414 145.647 259.269 145.647 260.322Z" fill="#373543"/>
<path d="M115.104 260.575L111.767 260.078C117.886 219 120.561 174.542 119.945 124.163L123.319 124.121C123.938 174.683 121.251 219.318 115.104 260.575Z" fill="#3043BC"/>
<path d="M116.074 225.009C115.764 211.204 97.6973 201.043 97.5146 200.942L99.1467 197.988C99.9619 198.438 119.094 209.18 119.449 224.934L116.074 225.009Z" fill="#3043BC"/>
<path d="M120.471 213.508L117.159 212.852C122.23 187.263 140.105 176.407 140.864 175.957L142.586 178.859C142.413 178.962 125.235 189.457 120.471 213.508Z" fill="#3043BC"/>
<path d="M59.841 198.935C55.8846 204.918 60.3307 217.853 60.3307 217.853L70.8627 239.277L89.923 229.281C89.923 229.281 87.4527 212.727 89.3841 213.112C91.3154 213.497 94.2662 227.637 94.2662 227.637L103.478 221.699C103.478 221.699 96.3787 203.216 100.288 205.001C104.196 206.785 108.403 218.413 108.403 218.413C108.403 218.413 110.958 218.174 114.288 210.302C117.611 202.434 115.533 187.717 105.394 185.694C95.2596 183.672 89.3211 189.764 89.3211 189.764C86.1293 175.576 74.6977 178.564 68.4231 179.82C62.1485 181.08 59.5447 191.601 59.5447 191.601C59.5447 191.601 75.9075 188.844 74.8958 192.658C73.884 196.468 59.841 198.935 59.841 198.935ZM99.7916 189.92C99.7916 189.92 105.177 188.841 106.229 192.209C107.281 195.578 99.9237 196.841 97.3874 195.326C94.8481 193.815 96.1454 190.915 99.7916 189.92ZM70.0843 204.776C72.9706 201.926 76.5247 202.967 76.5247 202.967C76.5247 202.967 77.1081 206.044 74.4153 209.134C71.7255 212.229 66.6192 212.171 66.6192 212.171C66.6192 212.171 67.1949 207.619 70.0843 204.776Z" fill="#375BC9"/>
<path d="M62.3043 119.527C56.5839 125.381 58.7824 140.832 58.7824 140.832L65.9752 167.108L89.4862 160.007C89.4862 160.007 90.2815 140.924 92.3617 141.771C94.442 142.619 94.7076 159.098 94.7076 159.098L106.308 154.426C106.308 154.426 102.329 132.187 106.325 135.027C110.323 137.867 112.535 151.803 112.535 151.803C112.535 151.803 115.451 152.084 120.875 143.98C126.293 135.879 127.131 118.937 116.204 114.488C105.283 110.04 97.3176 115.59 97.3176 115.59C96.794 99.0049 83.339 99.8938 76.0388 99.9506C68.7356 100.012 63.554 111.244 63.554 111.244C63.554 111.244 82.4838 111.674 80.5295 115.73C78.572 119.785 62.3043 119.527 62.3043 119.527ZM109.015 118.021C109.015 118.021 115.282 117.97 115.736 121.971C116.189 125.972 107.673 125.804 105.157 123.561C102.637 121.321 104.716 118.352 109.015 118.021ZM72.5276 128.276C76.375 125.705 80.1334 127.636 80.1334 127.636C80.1334 127.636 80.1257 131.209 76.4426 134.093C72.7626 136.983 67.0514 135.819 67.0514 135.819C67.0514 135.819 68.6772 130.842 72.5276 128.276Z" fill="#375BC9"/>
<path d="M160.418 168.802C159.654 164.838 176.609 168.771 176.609 168.771C176.609 168.771 174.693 157.845 168.207 156.13C161.722 154.42 149.957 150.586 145.506 164.86C145.506 164.86 139.749 158.232 128.958 159.606C118.162 160.98 114.839 175.874 117.717 184.136C120.598 192.404 123.262 192.823 123.262 192.823C123.262 192.823 128.579 181.233 132.819 179.678C137.059 178.123 128.175 196.517 128.175 196.517L137.38 203.212C137.38 203.212 141.575 188.971 143.63 188.71C145.686 188.447 141.809 205.189 141.809 205.189L161.034 216.701L173.749 195.536C173.749 195.536 179.419 182.629 175.731 176.247C175.731 176.247 161.188 172.766 160.418 168.802ZM136.616 169.993C133.837 171.368 126.214 169.574 127.579 166.206C128.944 162.838 134.511 164.308 134.511 164.308C138.258 165.575 139.396 168.624 136.616 169.993ZM167.593 189.301C167.593 189.301 162.23 189.012 159.648 185.667C157.061 182.326 157.913 179.223 157.913 179.223C157.913 179.223 161.722 178.402 164.53 181.51C167.341 184.614 167.593 189.301 167.593 189.301Z" fill="#375BC9"/>
<g filter="url(#filter11_d_2527_3401)">
<path d="M137.121 83.8837C125.792 84.9407 117.23 92.4665 117.998 100.693C118.765 108.92 128.571 114.732 139.9 113.675C151.229 112.618 164.833 103.686 166.613 96.1572C163.634 88.6221 148.45 82.8267 137.121 83.8837Z" fill="white"/>
<path d="M137.121 83.8837C125.792 84.9407 117.23 92.4665 117.998 100.693C118.765 108.92 128.571 114.732 139.9 113.675C151.229 112.618 164.833 103.686 166.613 96.1572C163.634 88.6221 148.45 82.8267 137.121 83.8837Z" fill="url(#paint4_linear_2527_3401)"/>
</g>
<g filter="url(#filter12_d_2527_3401)">
<path d="M258.925 187.583C264.745 197.36 275.219 201.859 282.318 197.633C289.418 193.406 290.454 182.054 284.634 172.277C278.813 162.501 264.904 154.053 257.341 155.678C251.816 161.605 253.104 177.807 258.925 187.583Z" fill="white"/>
<path d="M258.925 187.583C264.745 197.36 275.219 201.859 282.318 197.633C289.418 193.406 290.454 182.054 284.634 172.277C278.813 162.501 264.904 154.053 257.341 155.678C251.816 161.605 253.104 177.807 258.925 187.583Z" fill="url(#paint5_linear_2527_3401)"/>
</g>
</g>
<defs>
<filter id="filter0_d_2527_3401" x="4.69922" y="20.3672" width="373.99" height="301.951" filterUnits="userSpaceOnUse" color-interpolation-filters="sRGB">
<feFlood flood-opacity="0" result="BackgroundImageFix"/>
<feColorMatrix in="SourceAlpha" type="matrix" values="0 0 0 0 0 0 0 0 0 0 0 0 0 0 0 0 0 0 127 0" result="hardAlpha"/>
<feOffset dy="4"/>
<feGaussianBlur stdDeviation="2"/>
<feComposite in2="hardAlpha" operator="out"/>
<feColorMatrix type="matrix" values="0 0 0 0 0 0 0 0 0 0 0 0 0 0 0 0 0 0 0.25 0"/>
<feBlend mode="normal" in2="BackgroundImageFix" result="effect1_dropShadow_2527_3401"/>
<feBlend mode="normal" in="SourceGraphic" in2="effect1_dropShadow_2527_3401" result="shape"/>
</filter>
<filter id="filter1_d_2527_3401" x="165.793" y="40.0703" width="127.177" height="99.1895" filterUnits="userSpaceOnUse" color-interpolation-filters="sRGB">
<feFlood flood-opacity="0" result="BackgroundImageFix"/>
<feColorMatrix in="SourceAlpha" type="matrix" values="0 0 0 0 0 0 0 0 0 0 0 0 0 0 0 0 0 0 127 0" result="hardAlpha"/>
<feOffset dy="4"/>
<feGaussianBlur stdDeviation="2"/>
<feComposite in2="hardAlpha" operator="out"/>
<feColorMatrix type="matrix" values="0 0 0 0 0 0 0 0 0 0 0 0 0 0 0 0 0 0 0.25 0"/>
<feBlend mode="normal" in2="BackgroundImageFix" result="effect1_dropShadow_2527_3401"/>
<feBlend mode="normal" in="SourceGraphic" in2="effect1_dropShadow_2527_3401" result="shape"/>
</filter>
<filter id="filter2_d_2527_3401" x="147.684" y="65.6777" width="135.484" height="115.641" filterUnits="userSpaceOnUse" color-interpolation-filters="sRGB">
<feFlood flood-opacity="0" result="BackgroundImageFix"/>
<feColorMatrix in="SourceAlpha" type="matrix" values="0 0 0 0 0 0 0 0 0 0 0 0 0 0 0 0 0 0 127 0" result="hardAlpha"/>
<feOffset dy="4"/>
<feGaussianBlur stdDeviation="2"/>
<feComposite in2="hardAlpha" operator="out"/>
<feColorMatrix type="matrix" values="0 0 0 0 0 0 0 0 0 0 0 0 0 0 0 0 0 0 0.25 0"/>
<feBlend mode="normal" in2="BackgroundImageFix" result="effect1_dropShadow_2527_3401"/>
<feBlend mode="normal" in="SourceGraphic" in2="effect1_dropShadow_2527_3401" result="shape"/>
</filter>
<filter id="filter3_d_2527_3401" x="147.684" y="59.6777" width="135.484" height="115.641" filterUnits="userSpaceOnUse" color-interpolation-filters="sRGB">
<feFlood flood-opacity="0" result="BackgroundImageFix"/>
<feColorMatrix in="SourceAlpha" type="matrix" values="0 0 0 0 0 0 0 0 0 0 0 0 0 0 0 0 0 0 127 0" result="hardAlpha"/>
<feOffset dy="-2"/>
<feGaussianBlur stdDeviation="2"/>
<feComposite in2="hardAlpha" operator="out"/>
<feColorMatrix type="matrix" values="0 0 0 0 0 0 0 0 0 0 0 0 0 0 0 0 0 0 0.1 0"/>
<feBlend mode="normal" in2="BackgroundImageFix" result="effect1_dropShadow_2527_3401"/>
<feBlend mode="normal" in="SourceGraphic" in2="effect1_dropShadow_2527_3401" result="shape"/>
</filter>
<filter id="filter4_d_2527_3401" x="232.628" y="111.705" width="30.9092" height="30.1094" filterUnits="userSpaceOnUse" color-interpolation-filters="sRGB">
<feFlood flood-opacity="0" result="BackgroundImageFix"/>
<feColorMatrix in="SourceAlpha" type="matrix" values="0 0 0 0 0 0 0 0 0 0 0 0 0 0 0 0 0 0 127 0" result="hardAlpha"/>
<feOffset dy="2"/>
<feGaussianBlur stdDeviation="2"/>
<feComposite in2="hardAlpha" operator="out"/>
<feColorMatrix type="matrix" values="0 0 0 0 0 0 0 0 0 0 0 0 0 0 0 0 0 0 0.25 0"/>
<feBlend mode="normal" in2="BackgroundImageFix" result="effect1_dropShadow_2527_3401"/>
<feBlend mode="normal" in="SourceGraphic" in2="effect1_dropShadow_2527_3401" result="shape"/>
</filter>
<filter id="filter5_d_2527_3401" x="178.605" y="90.373" width="36.9473" height="21.9941" filterUnits="userSpaceOnUse" color-interpolation-filters="sRGB">
<feFlood flood-opacity="0" result="BackgroundImageFix"/>
<feColorMatrix in="SourceAlpha" type="matrix" values="0 0 0 0 0 0 0 0 0 0 0 0 0 0 0 0 0 0 127 0" result="hardAlpha"/>
<feOffset dy="2"/>
<feGaussianBlur stdDeviation="2"/>
<feComposite in2="hardAlpha" operator="out"/>
<feColorMatrix type="matrix" values="0 0 0 0 0 0 0 0 0 0 0 0 0 0 0 0 0 0 0.25 0"/>
<feBlend mode="normal" in2="BackgroundImageFix" result="effect1_dropShadow_2527_3401"/>
<feBlend mode="normal" in="SourceGraphic" in2="effect1_dropShadow_2527_3401" result="shape"/>
</filter>
<filter id="filter6_d_2527_3401" x="297.488" y="100.055" width="63.6924" height="54.7168" filterUnits="userSpaceOnUse" color-interpolation-filters="sRGB">
<feFlood flood-opacity="0" result="BackgroundImageFix"/>
<feColorMatrix in="SourceAlpha" type="matrix" values="0 0 0 0 0 0 0 0 0 0 0 0 0 0 0 0 0 0 127 0" result="hardAlpha"/>
<feOffset dy="4"/>
<feGaussianBlur stdDeviation="2"/>
<feComposite in2="hardAlpha" operator="out"/>
<feColorMatrix type="matrix" values="0 0 0 0 0 0 0 0 0 0 0 0 0 0 0 0 0 0 0.25 0"/>
<feBlend mode="normal" in2="BackgroundImageFix" result="effect1_dropShadow_2527_3401"/>
<feBlend mode="normal" in="SourceGraphic" in2="effect1_dropShadow_2527_3401" result="shape"/>
</filter>
<filter id="filter7_d_2527_3401" x="125.782" y="42.4512" width="24.5977" height="25.0762" filterUnits="userSpaceOnUse" color-interpolation-filters="sRGB">
<feFlood flood-opacity="0" result="BackgroundImageFix"/>
<feColorMatrix in="SourceAlpha" type="matrix" values="0 0 0 0 0 0 0 0 0 0 0 0 0 0 0 0 0 0 127 0" result="hardAlpha"/>
<feOffset dy="4"/>
<feGaussianBlur stdDeviation="2"/>
<feComposite in2="hardAlpha" operator="out"/>
<feColorMatrix type="matrix" values="0 0 0 0 0 0 0 0 0 0 0 0 0 0 0 0 0 0 0.25 0"/>
<feBlend mode="normal" in2="BackgroundImageFix" result="effect1_dropShadow_2527_3401"/>
<feBlend mode="normal" in="SourceGraphic" in2="effect1_dropShadow_2527_3401" result="shape"/>
</filter>
<filter id="filter8_d_2527_3401" x="166.093" y="20.3672" width="19.1904" height="19.3672" filterUnits="userSpaceOnUse" color-interpolation-filters="sRGB">
<feFlood flood-opacity="0" result="BackgroundImageFix"/>
<feColorMatrix in="SourceAlpha" type="matrix" values="0 0 0 0 0 0 0 0 0 0 0 0 0 0 0 0 0 0 127 0" result="hardAlpha"/>
<feOffset dy="4"/>
<feGaussianBlur stdDeviation="2"/>
<feComposite in2="hardAlpha" operator="out"/>
<feColorMatrix type="matrix" values="0 0 0 0 0 0 0 0 0 0 0 0 0 0 0 0 0 0 0.25 0"/>
<feBlend mode="normal" in2="BackgroundImageFix" result="effect1_dropShadow_2527_3401"/>
<feBlend mode="normal" in="SourceGraphic" in2="effect1_dropShadow_2527_3401" result="shape"/>
</filter>
<filter id="filter9_d_2527_3401" x="283.187" y="66.3945" width="24.5977" height="25.0762" filterUnits="userSpaceOnUse" color-interpolation-filters="sRGB">
<feFlood flood-opacity="0" result="BackgroundImageFix"/>
<feColorMatrix in="SourceAlpha" type="matrix" values="0 0 0 0 0 0 0 0 0 0 0 0 0 0 0 0 0 0 127 0" result="hardAlpha"/>
<feOffset dy="4"/>
<feGaussianBlur stdDeviation="2"/>
<feComposite in2="hardAlpha" operator="out"/>
<feColorMatrix type="matrix" values="0 0 0 0 0 0 0 0 0 0 0 0 0 0 0 0 0 0 0.25 0"/>
<feBlend mode="normal" in2="BackgroundImageFix" result="effect1_dropShadow_2527_3401"/>
<feBlend mode="normal" in="SourceGraphic" in2="effect1_dropShadow_2527_3401" result="shape"/>
</filter>
<filter id="filter10_d_2527_3401" x="289.917" y="148.271" width="19.1904" height="19.3672" filterUnits="userSpaceOnUse" color-interpolation-filters="sRGB">
<feFlood flood-opacity="0" result="BackgroundImageFix"/>
<feColorMatrix in="SourceAlpha" type="matrix" values="0 0 0 0 0 0 0 0 0 0 0 0 0 0 0 0 0 0 127 0" result="hardAlpha"/>
<feOffset dy="4"/>
<feGaussianBlur stdDeviation="2"/>
<feComposite in2="hardAlpha" operator="out"/>
<feColorMatrix type="matrix" values="0 0 0 0 0 0 0 0 0 0 0 0 0 0 0 0 0 0 0.25 0"/>
<feBlend mode="normal" in2="BackgroundImageFix" result="effect1_dropShadow_2527_3401"/>
<feBlend mode="normal" in="SourceGraphic" in2="effect1_dropShadow_2527_3401" result="shape"/>
</filter>
<filter id="filter11_d_2527_3401" x="113.95" y="83.7598" width="56.6631" height="38.0391" filterUnits="userSpaceOnUse" color-interpolation-filters="sRGB">
<feFlood flood-opacity="0" result="BackgroundImageFix"/>
<feColorMatrix in="SourceAlpha" type="matrix" values="0 0 0 0 0 0 0 0 0 0 0 0 0 0 0 0 0 0 127 0" result="hardAlpha"/>
<feOffset dy="4"/>
<feGaussianBlur stdDeviation="2"/>
<feComposite in2="hardAlpha" operator="out"/>
<feColorMatrix type="matrix" values="0 0 0 0 0 0 0 0 0 0 0 0 0 0 0 0 0 0 0.25 0"/>
<feBlend mode="normal" in2="BackgroundImageFix" result="effect1_dropShadow_2527_3401"/>
<feBlend mode="normal" in="SourceGraphic" in2="effect1_dropShadow_2527_3401" result="shape"/>
</filter>
<filter id="filter12_d_2527_3401" x="249.811" y="155.477" width="42.5918" height="51.7441" filterUnits="userSpaceOnUse" color-interpolation-filters="sRGB">
<feFlood flood-opacity="0" result="BackgroundImageFix"/>
<feColorMatrix in="SourceAlpha" type="matrix" values="0 0 0 0 0 0 0 0 0 0 0 0 0 0 0 0 0 0 127 0" result="hardAlpha"/>
<feOffset dy="4"/>
<feGaussianBlur stdDeviation="2"/>
<feComposite in2="hardAlpha" operator="out"/>
<feColorMatrix type="matrix" values="0 0 0 0 0 0 0 0 0 0 0 0 0 0 0 0 0 0 0.25 0"/>
<feBlend mode="normal" in2="BackgroundImageFix" result="effect1_dropShadow_2527_3401"/>
<feBlend mode="normal" in="SourceGraphic" in2="effect1_dropShadow_2527_3401" result="shape"/>
</filter>
<linearGradient id="paint0_linear_2527_3401" x1="242.954" y1="41.9356" x2="242.954" y2="75.4256" gradientUnits="userSpaceOnUse">
<stop stop-color="white"/>
<stop offset="1" stop-color="#C4DDFC"/>
</linearGradient>
<linearGradient id="paint1_linear_2527_3401" x1="229.382" y1="53.8065" x2="229.382" y2="124.805" gradientUnits="userSpaceOnUse">
<stop/>
<stop offset="1" stop-color="#666666"/>
</linearGradient>
<linearGradient id="paint2_linear_2527_3401" x1="241.158" y1="68.4888" x2="196.353" y2="164.364" gradientUnits="userSpaceOnUse">
<stop stop-color="white" stop-opacity="0"/>
<stop offset="1" stop-color="#6AABFF" stop-opacity="0.45"/>
</linearGradient>
<linearGradient id="paint3_linear_2527_3401" x1="210.532" y1="134.02" x2="196.353" y2="164.36" gradientUnits="userSpaceOnUse">
<stop stop-color="white" stop-opacity="0"/>
<stop offset="1" stop-color="#6A90F9"/>
</linearGradient>
<linearGradient id="paint4_linear_2527_3401" x1="123.21" y1="115.232" x2="167.478" y2="102.091" gradientUnits="userSpaceOnUse">
<stop stop-color="white" stop-opacity="0"/>
<stop offset="1" stop-color="#6AABFF" stop-opacity="0.8"/>
</linearGradient>
<linearGradient id="paint5_linear_2527_3401" x1="293.209" y1="186.681" x2="262.328" y2="152.348" gradientUnits="userSpaceOnUse">
<stop stop-color="white" stop-opacity="0"/>
<stop offset="1" stop-color="#6AABFF" stop-opacity="0.8"/>
</linearGradient>
</defs>
</svg>
